<?xml version="1.0" encoding="utf-8"?>
<!-- Generator: Adobe Illustrator 25.4.1, SVG Export Plug-In . SVG Version: 6.00 Build 0)  -->
<svg version="1.1" id="Capa_1" xmlns="http://www.w3.org/2000/svg" xmlns:xlink="http://www.w3.org/1999/xlink" x="0px" y="0px"
	 viewBox="0 0 179.65 164" style="enable-background:new 0 0 179.65 164;" xml:space="preserve">
<style type="text/css">
	.st0{fill:#0A0304;}
	.st1{fill:#FFFFFF;}
	.st2{fill:#231F20;}
	.st3{fill:none;stroke:#FFFFFF;stroke-width:0.1134;stroke-miterlimit:10;}
	.st4{fill:none;stroke:#FFFFFF;stroke-width:2.3808;stroke-miterlimit:10;}
	.st5{fill:none;stroke:#FFFFFF;stroke-width:2.4102;stroke-linecap:round;stroke-linejoin:round;}
	.st6{fill:#231F20;stroke:#000000;stroke-width:2.2496;stroke-miterlimit:10;}
</style>
<g>
	<g>
		<g>
			<g id="XMLID_00000044870595343681119450000007501042983972639634_">
				<g>
					<path class="st0" d="M171.22,56.43c0.08,0.49,0.15,0.99,0.22,1.48c-0.14-1.03-0.33-2.16-0.63-3.69
						C170.96,54.95,171.1,55.69,171.22,56.43z"/>
					<path class="st1" d="M135.39,109.51c0.37-0.04,0.74-0.08,1.13-0.13c-1.39,0.36-2.82,0.65-4.26,0.89
						c-8.88,1.43-17.56,0.31-25.29-2.83c-1.16-0.52-2.26-1.05-3.31-1.6l-2.39-12.55L85.2,89.43c-0.29-0.44-0.56-0.89-0.84-1.35
						c0,0,0,0,0,0c-2.31-3.87-4.1-8.14-5.24-12.71c-0.32-1.29-0.59-2.6-0.81-3.94c-0.01-0.08-0.03-0.16-0.04-0.24
						c0.05,0.16,0.07,0.24,0.07,0.24L91.62,57.4l-1.35-13.85l-5.87-3.74c0.08-0.13,0.15-0.25,0.22-0.37
						c5.15-8.47,12.92-15.28,22.32-19.15c1.01-0.41,2-0.77,2.97-1.09l-1.96,11.87l15.37,7.14l16.59-7.27l1.4-11.12
						c1.17,0.43,2.46,0.95,3.7,1.53c12.83,6.14,22.67,18,25.8,32.84c0,0.01,0,0.02,0.01,0.03c0.29,1.53,0.49,2.67,0.63,3.69
						c0.01,0.04,0.01,0.08,0.02,0.12c0.01,0.07,0.02,0.14,0.03,0.2c0.02,0.2,0.05,0.4,0.07,0.6c0,0.02,0.01,0.05,0.01,0.07
						c0.01,0.05,0.01,0.11,0.02,0.16c-1.78-8.38-5.23-17.32-6.81-17.53l-7.2,2.3l-4.15,17.89l6.62,17.17l10.95-6
						c-2.1,10.88-8.01,20.59-16.5,27.47c-0.04,0.03-0.08,0.07-0.12,0.1c-0.05,0.04-0.11,0.09-0.16,0.13l-1.47,0.05l-1.03-4.85
						l-16.86,0.39l-7.18,13.5C127.65,109.69,130.88,109.99,135.39,109.51z M131.89,85.83l9-22.18l-18.06-11.74l-18.24,8.82
						l3.62,22.41L131.89,85.83z"/>
					<path class="st2" d="M171.48,58.24c-0.01-0.07-0.02-0.14-0.03-0.2C171.46,58.1,171.47,58.17,171.48,58.24z"/>
					<path class="st2" d="M171.55,58.84c-0.02-0.2-0.04-0.4-0.07-0.6C171.5,58.44,171.53,58.64,171.55,58.84z"/>
					<path class="st2" d="M171.57,59.06c-0.01-0.05-0.01-0.11-0.02-0.16c0.01,0.06,0.01,0.11,0.02,0.17
						C171.57,59.07,171.57,59.07,171.57,59.06z"/>
					<path class="st2" d="M171.57,59.07c1.21,5.66,1.65,11.07,0.25,13.36l-0.84,0.46c0.57-2.95,0.86-5.99,0.85-9.09
						c0,0,0-0.01,0-0.01c-0.01-1.49-0.09-2.99-0.24-4.5c0-0.03-0.01-0.07-0.01-0.1C171.58,59.15,171.58,59.11,171.57,59.07z"/>
					<path class="st2" d="M171.57,59.06c0,0,0,0.01,0,0.01c0,0.04,0.01,0.08,0.01,0.11C171.58,59.15,171.58,59.1,171.57,59.06z"/>
					<path d="M171.57,59.06c0.01,0.04,0.01,0.08,0.01,0.13c0.01,0.03,0.01,0.07,0.01,0.1c0.12,1.26,0.17,2.56,0.24,4.5
						c0,0,0,0.01,0,0.01c0.01,3.09-0.28,6.13-0.85,9.09l-10.95,6l-6.62-17.17l4.15-17.89l7.2-2.3
						C166.34,41.74,169.79,50.68,171.57,59.06z"/>
					<path class="st0" d="M171.59,59.29c0.15,1.51,0.23,3.01,0.24,4.5C171.77,61.85,171.71,60.55,171.59,59.29z"/>
					<path class="st2" d="M154.2,100.6l1.76-0.06c-5.62,5.87-13.44,8.07-19.44,8.85c5.18-1.32,9.96-3.47,14.22-6.28
						c0.01-0.01,0.03-0.02,0.04-0.03c0.14-0.09,0.29-0.19,0.43-0.29c0,0,0,0,0,0C152.21,102.12,153.2,101.4,154.2,100.6z"/>
					<path class="st0" d="M141.31,19.77c1.26,0.47,2.49,1,3.7,1.58c-1.25-0.58-2.54-1.09-3.7-1.53L141.31,19.77z"/>
					<path class="st2" d="M154.2,100.6c0.06-0.04,0.11-0.09,0.16-0.13C154.31,100.51,154.25,100.55,154.2,100.6L154.2,100.6z"/>
					<path class="st2" d="M141.31,19.76l0,0.01c-0.18-0.07-0.36-0.13-0.54-0.2C141.13,19.69,141.31,19.76,141.31,19.76z"/>
					<path class="st2" d="M141.31,19.77l-0.01,0.05c-0.69-0.26-1.34-0.49-1.91-0.68c0.59,0.17,1.05,0.32,1.38,0.43c0,0,0,0,0.01,0
						C140.95,19.64,141.13,19.7,141.31,19.77z"/>
					<path d="M141.3,19.82l-1.4,11.12l-16.59,7.27l-15.37-7.14l1.96-11.87c4.27-1.4,8.17-2.03,11.17-2.29c0,0,0.01,0,0.01,0
						c0.72-0.06,1.44-0.1,2.15-0.12c6.97-0.04,13.15,1.47,16.15,2.35C139.96,19.34,140.61,19.56,141.3,19.82z"/>
					<path class="st2" d="M154.2,100.6L154.2,100.6c-0.99,0.8-1.99,1.53-2.98,2.19C152.24,102.09,153.23,101.36,154.2,100.6z"/>
					<path d="M152.73,100.65l1.47-0.05c-0.96,0.77-1.96,1.5-2.98,2.19c0,0,0,0,0,0c-0.14,0.1-0.29,0.19-0.43,0.29
						c-0.01,0.01-0.03,0.02-0.04,0.03c-7.79,5.09-14.92,6.2-15.35,6.41c-4.51,0.48-7.74,0.17-7.74,0.17l7.18-13.5l16.86-0.39
						L152.73,100.65z"/>
					<path class="st0" d="M140.77,19.57c-0.33-0.11-0.79-0.26-1.38-0.43c-1.2-0.41-2.07-0.67-2.27-0.73
						C138.35,18.75,139.57,19.13,140.77,19.57z"/>
					<path class="st2" d="M150.78,103.08c0.14-0.09,0.29-0.19,0.43-0.29C151.07,102.89,150.93,102.98,150.78,103.08z"/>
					<path class="st0" d="M137.12,18.41c0.21,0.06,1.07,0.32,2.27,0.73c-3-0.88-9.18-2.39-16.15-2.35c0.01,0,0.01,0,0.02,0
						c0.66-0.02,1.33-0.03,1.99-0.02c0.65,0.01,1.3,0.03,1.94,0.06c3.38,0.17,6.69,0.71,9.87,1.57
						C137.08,18.4,137.1,18.4,137.12,18.41z"/>
					<polygon points="140.89,63.65 131.89,85.83 108.21,83.14 104.59,60.73 122.83,51.91 					"/>
					<path class="st2" d="M135.39,109.51c0.43-0.21,7.56-1.32,15.35-6.41c-4.26,2.81-9.04,4.95-14.22,6.28
						C136.14,109.43,135.76,109.48,135.39,109.51z"/>
					<path class="st2" d="M122.81,16.79c0.15,0,0.29,0,0.44,0c-0.71,0.02-1.43,0.06-2.15,0.12
						C121.7,16.86,122.27,16.82,122.81,16.79C122.8,16.79,122.8,16.79,122.81,16.79z"/>
					<path class="st2" d="M122.8,16.79c-0.53,0.03-1.1,0.06-1.71,0.12c0,0-0.01,0-0.01,0c-0.43,0.03-0.86,0.07-1.3,0.12
						c-0.84,0.09-1.69,0.2-2.53,0.34c-0.94,0.15-1.88,0.33-2.8,0.54c-1.54,0.35-3.06,0.77-4.53,1.26c0,0,0,0-0.01,0l0-0.01
						C114.14,17.49,118.6,16.85,122.8,16.79z"/>
					<path class="st2" d="M119.78,17.03c0.43-0.05,0.86-0.09,1.3-0.12c-3.01,0.26-6.9,0.89-11.17,2.29l0-0.02c0,0,0,0,0.01,0
						c1.48-0.49,2.99-0.92,4.53-1.26c0.92-0.21,1.86-0.39,2.8-0.54C118.1,17.23,118.94,17.12,119.78,17.03z"/>
					<path class="st0" d="M109.91,19.18l0,0.02c-0.97,0.32-1.97,0.68-2.97,1.09C107.91,19.88,108.9,19.51,109.91,19.18z"/>
					<path class="st0" d="M106.97,107.44c-1.12-0.45-2.21-0.95-3.29-1.49l-0.02-0.11C104.71,106.39,105.81,106.93,106.97,107.44z"/>
					<path class="st2" d="M103.68,105.96l0.03,0.18c0,0-12.35-6.04-17.42-14.83c1.45,2.08,3.82,4.95,7.42,7.97
						c0.01,0.01,0.02,0.01,0.03,0.02C96.74,101.93,100.09,104.17,103.68,105.96z"/>
					<path class="st2" d="M103.66,105.85l0.02,0.11c-3.59-1.79-6.93-4.03-9.94-6.66C96.35,101.49,99.62,103.75,103.66,105.85z"/>
					<path d="M101.27,93.3l2.39,12.55c-4.04-2.09-7.31-4.36-9.92-6.55c-0.01-0.01-0.02-0.01-0.03-0.02
						c-3.26-2.85-6.13-6.15-8.5-9.84L101.27,93.3z"/>
					<path d="M90.27,43.55l1.35,13.85L78.36,71.43c0,0-0.03-0.08-0.07-0.24c-1-6.39-0.65-12.68,0.83-18.6
						c1.58-5.93,3.96-10.51,5.29-12.78L90.27,43.55z"/>
					<path class="st0" d="M84.62,39.44c-0.07,0.11-0.14,0.24-0.22,0.37l0,0C84.47,39.68,84.54,39.56,84.62,39.44z"/>
					<path class="st2" d="M84.39,39.81L84.39,39.81c-1.32,2.27-3.7,6.85-5.28,12.78C80.24,48.06,82.04,43.76,84.39,39.81z"/>
					<path class="st2" d="M84.38,39.8l0.01,0.01c-2.36,3.95-4.15,8.26-5.28,12.78c-1.25,4.68-2,10.21-1.35,16.09
						C77,63.77,76.59,52.75,84.38,39.8z"/>
					<path class="st2" d="M93.71,99.28c-3.6-3.02-5.97-5.89-7.42-7.97c-0.08-0.14-0.16-0.29-0.24-0.43l-0.95-1.42
						c-0.01-0.02-0.02-0.04-0.03-0.06l0.14,0.03C87.58,93.12,90.45,96.43,93.71,99.28z"/>
					<path class="st2" d="M85.1,89.46l-0.04-0.06l0,0C85.08,89.42,85.09,89.44,85.1,89.46z"/>
					<path class="st2" d="M79.11,52.59c-1.48,5.91-1.82,12.21-0.83,18.6c-0.11-0.39-0.33-1.25-0.52-2.51
						C77.11,62.8,77.86,57.28,79.11,52.59z"/>
				</g>
				<g>
					<path class="st3" d="M140.77,19.57c-0.33-0.11-0.79-0.26-1.38-0.43c-3-0.88-9.18-2.39-16.15-2.35c-0.15,0-0.29,0-0.44,0"/>
					<path class="st3" d="M122.8,16.79c-4.2,0.06-8.67,0.69-12.89,2.37l0,0.01l0,0.02l-1.96,11.87l15.37,7.14l16.59-7.27l1.4-11.12
						l0.01-0.05l0-0.01c0,0-0.19-0.07-0.54-0.18"/>
					<path class="st3" d="M170.99,72.89l-10.95,6l-6.62-17.17l4.15-17.89l7.2-2.3c1.58,0.21,5.03,9.14,6.81,17.53c0,0,0,0.01,0,0.01
						c1.21,5.66,1.65,11.07,0.25,13.36L170.99,72.89z"/>
					<polygon class="st3" points="122.83,51.91 140.89,63.65 131.89,85.83 108.21,83.14 104.59,60.73 					"/>
					<path class="st3" d="M84.4,39.81l5.87,3.74l1.35,13.85L78.36,71.43c0,0-0.03-0.08-0.07-0.24c-0.11-0.39-0.33-1.25-0.52-2.51
						C77,63.77,76.59,52.75,84.38,39.8L84.4,39.81"/>
					<line class="st4" x1="84.39" y1="39.81" x2="84.4" y2="39.81"/>
					<path class="st3" d="M86.29,91.31c-0.08-0.14-0.16-0.29-0.24-0.43l-0.95-1.42l-0.04-0.06l0,0l0.14,0.03l16.06,3.86l2.39,12.55
						l0.02,0.11l0.03,0.18C103.71,106.14,91.36,100.09,86.29,91.31z"/>
					<path class="st3" d="M154.2,100.6l-1.47,0.05l-1.03-4.85l-16.86,0.39l-7.18,13.5c0,0,3.23,0.31,7.74-0.17
						c0.37-0.04,0.74-0.08,1.13-0.13c6-0.78,13.82-2.98,19.44-8.85L154.2,100.6L154.2,100.6z"/>
					<path class="st4" d="M141.31,19.77c1.26,0.47,2.49,1,3.7,1.58c12.83,6.14,22.67,18,25.8,32.84"/>
					<path class="st4" d="M137.12,18.41c1.24,0.34,2.45,0.72,3.65,1.16c0,0,0,0,0.01,0"/>
					<path class="st5" d="M127.19,16.82c3.38,0.17,6.69,0.71,9.87,1.57"/>
					<path class="st4" d="M123.24,16.79c0.01,0,0.01,0,0.02,0c0.66-0.02,1.33-0.03,1.99-0.02c0.65,0.01,1.3,0.03,1.94,0.06"/>
					<path class="st5" d="M106.93,20.29c0.97-0.4,1.97-0.77,2.98-1.11"/>
					<path class="st4" d="M84.62,39.44c5.15-8.47,12.92-15.28,22.32-19.15"/>
					<path class="st5" d="M84.39,39.81c0.07-0.12,0.15-0.25,0.22-0.37"/>
					<path class="st4" d="M79.11,52.59c1.13-4.53,2.92-8.83,5.28-12.78"/>
					<path class="st4" d="M84.37,88.08c-2.31-3.87-4.1-8.14-5.24-12.71c-0.32-1.29-0.59-2.6-0.81-3.94
						c-0.01-0.08-0.03-0.16-0.04-0.24"/>
					<path class="st4" d="M93.71,99.28c-3.26-2.85-6.13-6.15-8.5-9.84c-0.29-0.44-0.56-0.89-0.84-1.35"/>
					<path class="st4" d="M136.52,109.38c-1.39,0.36-2.82,0.65-4.26,0.89c-8.88,1.43-17.56,0.31-25.29-2.83
						c-1.12-0.45-2.21-0.95-3.29-1.49"/>
					<path class="st5" d="M150.74,103.1c-4.26,2.81-9.04,4.95-14.22,6.28"/>
					<path class="st5" d="M151.21,102.79c-0.14,0.1-0.29,0.19-0.43,0.29"/>
					<path class="st5" d="M154.2,100.6c-0.96,0.77-1.96,1.5-2.98,2.19"/>
					<path class="st3" d="M154.36,100.46c-0.05,0.04-0.11,0.09-0.16,0.13"/>
					<path class="st4" d="M170.99,72.89c-2.1,10.88-8.01,20.59-16.5,27.47"/>
					<path class="st5" d="M171.83,63.81c0.01,3.09-0.28,6.13-0.85,9.09"/>
					<path class="st5" d="M171.59,59.29c0.15,1.51,0.23,3.01,0.24,4.5"/>
					<path class="st5" d="M171.55,58.9c0.01,0.05,0.01,0.11,0.02,0.16c0.01,0.04,0.01,0.08,0.01,0.13"/>
					<path class="st5" d="M171.45,58.03c0.01,0.07,0.02,0.14,0.03,0.2c0.02,0.2,0.05,0.4,0.07,0.6"/>
					<path class="st5" d="M170.81,54.22c0.15,0.73,0.29,1.47,0.41,2.21c0.08,0.49,0.15,0.99,0.22,1.48"/>
					<path class="st5" d="M127.19,16.82c0,0-1.65-0.17-4.39-0.03c0,0,0,0,0,0c-0.53,0.03-1.1,0.06-1.71,0.12c0,0-0.01,0-0.01,0
						c-3.01,0.26-6.9,0.89-11.17,2.29c-0.97,0.32-1.97,0.68-2.97,1.09"/>
					<path class="st5" d="M137.07,18.4c0.02,0,0.03,0.01,0.05,0.01c0.21,0.06,1.07,0.32,2.27,0.73c0.57,0.19,1.22,0.42,1.91,0.68
						c1.17,0.43,2.46,0.95,3.7,1.53c0.02,0.01,0.05,0.02,0.07,0.03"/>
					<path class="st5" d="M85.37,38.24c0,0-0.29,0.42-0.75,1.2c-0.07,0.11-0.14,0.24-0.22,0.37c-1.32,2.27-3.7,6.85-5.29,12.78
						c-1.25,4.68-2,10.21-1.35,16.09c0.24,2.19,0.68,4.42,1.36,6.69"/>
					<path class="st5" d="M84.37,88.08C84.37,88.09,84.37,88.09,84.37,88.08c0.02,0.04,0.23,0.52,0.7,1.32
						c0.01,0.02,0.02,0.04,0.03,0.06c0.29,0.5,0.69,1.13,1.19,1.85c1.45,2.08,3.82,4.95,7.42,7.97c0.01,0.01,0.02,0.01,0.03,0.02
						c2.62,2.19,5.88,4.46,9.92,6.55c1.05,0.54,2.15,1.08,3.31,1.6"/>
					<path class="st3" d="M151.22,102.79c0.99-0.66,1.99-1.39,2.98-2.19c0.05-0.04,0.11-0.09,0.16-0.13
						c0.04-0.03,0.08-0.07,0.12-0.1"/>
					<path class="st5" d="M135.37,109.53c0,0,0.01-0.01,0.02-0.01c0.43-0.21,7.56-1.32,15.35-6.41c0.01-0.01,0.03-0.02,0.04-0.03
						c0.14-0.09,0.29-0.19,0.43-0.29c0,0,0,0,0,0"/>
					<path class="st5" d="M170.81,54.19c0,0.01,0,0.02,0.01,0.03c0.29,1.53,0.49,2.67,0.63,3.69c0.01,0.04,0.01,0.08,0.02,0.12
						c0.01,0.07,0.02,0.14,0.03,0.2c0.03,0.2,0.05,0.4,0.07,0.6c0,0.02,0.01,0.05,0.01,0.07c0.01,0.06,0.01,0.11,0.02,0.17
						c0,0.04,0.01,0.08,0.01,0.11c0.01,0.03,0.01,0.07,0.01,0.1c0.12,1.26,0.17,2.56,0.24,4.5c0,0,0,0.01,0,0.01"/>
				</g>
			</g>
		</g>
		<line class="st6" x1="88.06" y1="56.9" x2="107.21" y2="61.87"/>
		<line class="st6" x1="121.97" y1="34.69" x2="122.14" y2="54.47"/>
		<line class="st6" x1="115.03" y1="25.49" x2="84.29" y2="47.3"/>
		<line class="st6" x1="163.46" y1="49.21" x2="133.99" y2="25.72"/>
		<line class="st6" x1="157.1" y1="60.75" x2="137.6" y2="64.05"/>
		<line class="st6" x1="163.92" y1="68.99" x2="150.26" y2="96.68"/>
		<line class="st6" x1="135.91" y1="99" x2="129.45" y2="80.3"/>
		<line class="st6" x1="97.73" y1="95.94" x2="109.54" y2="80.07"/>
	</g>
	<g>
		<g id="XMLID_00000098198857346592595820000017238252331711394730_">
			<g>
				<path class="st1" d="M106.43,137.86c-0.89,1.53-1.84,3.05-2.97,4.4c-3.31,3.93-9.21,4.55-12.96,2.17
					c-0.09-0.06-0.21-0.08-0.4-0.15c-0.44,0.58-0.9,1.17-1.35,1.76c-1.05,1.37-2.08,1.57-3.53,0.68c-0.94-0.57-1.87-1.14-2.78-1.75
					c-1.1-0.75-1.35-1.76-0.79-2.96c0.35-0.75,0.72-1.5,1.12-2.33c-1.38-0.86-2.77-1.73-4.24-2.65c-0.52,0.67-1.04,1.36-1.6,2.01
					c-0.92,1.08-1.9,1.25-3.1,0.54c-0.98-0.57-1.94-1.18-2.88-1.8c-1.17-0.77-1.44-1.72-0.88-3.02c0.18-0.42,0.39-0.82,0.59-1.22
					c0.18-0.37,0.35-0.74,0.55-1.14c-1.44-0.9-2.8-1.75-4.22-2.64c-0.56,0.71-1.09,1.38-1.63,2.05c-0.81,1-1.82,1.26-2.9,0.64
					c-1.11-0.63-2.21-1.32-3.26-2.04c-1.01-0.69-1.24-1.72-0.71-2.9c0.35-0.79,0.76-1.55,1.16-2.35c-1.44-0.9-2.81-1.75-4.23-2.65
					c-0.53,0.68-1.04,1.33-1.54,1.97c-0.86,1.09-1.92,1.35-3.09,0.67c-1.05-0.6-2.07-1.25-3.07-1.92c-1.12-0.76-1.35-1.82-0.75-3.07
					c0.36-0.74,0.72-1.48,1.1-2.25c-5.91-3.7-11.76-7.36-17.72-11.08c-0.53,0.66-1.04,1.34-1.59,1.99
					c-0.96,1.14-1.93,1.32-3.18,0.57c-0.94-0.56-1.87-1.14-2.78-1.74c-1.23-0.8-1.51-1.75-0.92-3.11c0.33-0.75,0.72-1.48,1.11-2.29
					c-1.41-0.88-2.77-1.73-4.23-2.64c-0.54,0.67-1.09,1.38-1.65,2.07c-0.79,0.97-1.82,1.2-2.92,0.58c-1.08-0.62-2.14-1.28-3.17-1.98
					c-1.07-0.72-1.29-1.82-0.68-3.1c0.4-0.85,0.83-1.68,1.24-2.49c-0.62-0.64-1.19-1.19-1.7-1.78c-2.61-3.01-2.9-6.18-0.8-9.58
					c3.36-5.43,6.77-10.83,10.15-16.25c2.84-4.55,5.69-9.1,8.54-13.64c1.39-2.22,3.5-3.18,5.75-2.62c2.25,0.55,3.64,2.34,3.88,4.98
					c0.86,9.64,10.16,15.28,19.06,11.55c3.39-1.42,6.5-0.1,7.75,3.34c1.32,3.63,3.29,6.85,5.75,9.81
					c7.21,8.66,14.57,17.21,21.52,26.08c5.23,6.67,9.99,13.71,14.81,20.69C108.59,130.65,108.49,134.31,106.43,137.86z
					 M102.41,139.2c0.53-0.84,1.01-1.61,1.49-2.38c1.8-2.9,1.76-5.77-0.21-8.57c-3.4-4.84-6.74-9.73-10.24-14.5
					c-3.39-4.61-6.95-9.09-10.48-13.7c-3.36,1.91-6.26,1.64-8.92-0.73c-4.34-3.86-8.68-7.72-13-11.6c-2.4-2.15-3.09-5.28-1.69-8.13
					c0.49-0.99,1.24-1.91,2.06-2.67c1.33-1.22,1.84-2.45,0.72-4.06c-0.23-0.33-0.3-0.77-0.45-1.16c-0.8-2.1-2.2-2.7-4.3-1.83
					c-10.55,4.37-21.74-2.44-22.72-13.82c-0.13-1.52-0.66-2.3-1.77-2.57c-1.18-0.29-2.06,0.14-2.88,1.45
					c-2.67,4.26-5.33,8.51-7.99,12.78c-0.17,0.27-0.31,0.57-0.47,0.89c2.41,1.51,4.8,2.89,7.07,4.44
					c6.62,4.51,9.33,13.11,6.58,20.64c-0.34,0.94-0.76,1.86-1.17,2.83c1.62,1.01,3.2,1.96,4.74,2.98c0.62,0.41,1.18,0.48,1.89,0.31
					c6.99-1.64,13.98-3.25,20.97-4.85c3.1-0.71,5.82,0.84,6.51,3.69c0.71,2.93-1.02,5.54-4.2,6.28c-3.57,0.84-7.14,1.65-10.71,2.47
					c-0.35,0.08-0.69,0.19-1.09,0.3c2.1,1.73,2.12,1.74,4.53,1.18c3.35-0.77,6.69-1.56,10.05-2.31c2.95-0.66,5.61,0.94,6.28,3.73
					c0.68,2.82-1.02,5.49-3.99,6.24c-0.63,0.16-1.26,0.3-2.01,0.48C78.91,124.51,90.64,131.84,102.41,139.2z M100.41,141.26
					c-0.46-0.29-0.85-0.53-1.23-0.77c-26.41-16.52-52.83-33.04-79.23-49.58c-1.82-1.14-3.58-2.41-5.18-3.81
					c-1.07-0.93-1.83-2.22-2.72-3.35c-2.43,3.31-2.26,5.6,0.78,8.37c1.02,0.94,2.14,1.81,3.31,2.55
					c25.35,15.88,50.7,31.74,76.06,47.6C94.46,143.68,98.33,143.22,100.41,141.26z M87.75,142.81c-0.89-0.56-1.75-1.09-2.66-1.66
					c-0.3,0.62-0.55,1.16-0.81,1.71c0.81,0.51,1.55,0.97,2.32,1.45C87,143.78,87.37,143.31,87.75,142.81z M76.17,135.54
					c-0.89-0.55-1.72-1.08-2.61-1.63c-0.32,0.62-0.6,1.16-0.88,1.69c0.85,0.53,1.57,0.98,2.35,1.47
					C75.42,136.55,75.77,136.08,76.17,135.54z M64.6,128.33c-0.97-0.61-1.8-1.12-2.66-1.66c-0.3,0.62-0.55,1.15-0.81,1.71
					c0.79,0.49,1.52,0.95,2.32,1.45C63.85,129.31,64.21,128.84,64.6,128.33z M68.86,113.74c1.21-0.37,1.77-1.64,1.45-2.83
					c-0.33-1.21-1.4-1.98-2.68-1.7c-3.17,0.68-6.31,1.46-9.72,2.26c1.93,1.21,3.65,2.29,5.38,3.35c0.17,0.1,0.44,0.17,0.63,0.12
					C65.56,114.56,67.24,114.23,68.86,113.74z M76.31,97.62c1.46,1.25,3.17,1.29,4.58,0.28c-5.51-6.67-11.03-13.33-16.64-20.11
					c-0.5,0.56-1.1,1.23-1.69,1.9c-1.73,1.93-1.56,4.34,0.4,6.08c1.83,1.62,3.64,3.27,5.48,4.9C71.05,92.99,73.65,95.35,76.31,97.62
					z M53.05,121.07c-0.93-0.58-1.77-1.11-2.68-1.68c-0.29,0.62-0.55,1.19-0.82,1.77c0.79,0.49,1.51,0.95,2.28,1.43
					C52.25,122.08,52.63,121.6,53.05,121.07z M63.68,102.2c1.28-0.31,1.96-1.27,1.89-2.47c-0.09-1.56-1.47-2.53-3.16-2.15
					c-6.25,1.42-12.49,2.87-18.73,4.31c-0.17,0.04-0.32,0.11-0.69,0.23c1.91,1.2,3.65,2.3,5.41,3.36c0.19,0.12,0.51,0.12,0.74,0.07
					C53.99,104.45,58.84,103.35,63.68,102.2z M27.91,105.38c-0.9-0.57-1.73-1.08-2.6-1.63c-0.32,0.61-0.59,1.13-0.88,1.69
					c0.82,0.51,1.54,0.96,2.37,1.48C27.21,106.35,27.55,105.88,27.91,105.38z M31.66,95.05c2.37-4.82,2.48-9.48,0.25-14.2
					c-2.43-5.15-7.51-7.03-11.89-9.95c-1.47,2.35-2.87,4.58-4.26,6.81c-1.91,3.06-1.72,5.13,1.01,7.46
					c1.82,1.56,3.86,2.89,5.87,4.21C25.57,91.3,28.56,93.12,31.66,95.05z M16.41,98.1c-0.91-0.57-1.73-1.08-2.67-1.67
					c-0.3,0.64-0.57,1.21-0.85,1.8c0.78,0.49,1.5,0.94,2.3,1.44C15.59,99.15,15.97,98.66,16.41,98.1z"/>
				<path d="M103.89,136.82c-0.48,0.77-0.96,1.53-1.49,2.38c-11.76-7.36-23.49-14.69-35.42-22.15c0.76-0.18,1.38-0.32,2.01-0.48
					c2.96-0.75,4.67-3.42,3.99-6.24c-0.68-2.8-3.33-4.39-6.28-3.73c-3.35,0.75-6.7,1.54-10.05,2.31c-2.41,0.55-2.43,0.55-4.53-1.18
					c0.4-0.12,0.75-0.22,1.09-0.3c3.57-0.83,7.14-1.64,10.71-2.47c3.18-0.74,4.91-3.35,4.2-6.28c-0.69-2.85-3.4-4.4-6.51-3.69
					c-6.99,1.6-13.99,3.21-20.97,4.85c-0.71,0.17-1.28,0.1-1.89-0.31c-1.54-1.02-3.12-1.97-4.74-2.98c0.41-0.98,0.83-1.89,1.17-2.83
					c2.75-7.53,0.04-16.13-6.58-20.64c-2.27-1.55-4.66-2.93-7.07-4.44c0.17-0.31,0.3-0.61,0.47-0.89c2.66-4.26,5.32-8.52,7.99-12.78
					c0.82-1.31,1.7-1.75,2.88-1.45c1.11,0.28,1.64,1.05,1.77,2.57c0.98,11.38,12.17,18.18,22.72,13.82c2.1-0.87,3.5-0.27,4.3,1.83
					c0.15,0.39,0.22,0.83,0.45,1.16c1.12,1.61,0.61,2.83-0.72,4.06c-0.82,0.75-1.57,1.68-2.06,2.67c-1.4,2.85-0.71,5.97,1.69,8.13
					c4.33,3.88,8.66,7.74,13,11.6c2.66,2.36,5.56,2.64,8.92,0.73c3.53,4.6,7.1,9.09,10.48,13.7c3.5,4.77,6.84,9.66,10.24,14.5
					C105.65,131.06,105.7,133.92,103.89,136.82z M98.9,127.52c0.77-0.45,0.83-1.3,0.13-2.27c-3.68-5.11-7.37-10.2-11.07-15.3
					c-0.2-0.27-0.43-0.52-0.85-1.01c-0.48,0.14-1.16,0.15-1.56,0.49c-0.65,0.55-0.42,1.28,0.05,1.93
					c3.74,5.16,7.48,10.31,11.21,15.48C97.36,127.59,97.98,128.05,98.9,127.52z M83.24,108.27c0.63,0.36,1.52,0.13,1.88-0.48
					c0.42-0.74-0.08-1.94-1.04-2.44c-0.77-0.4-1.39-0.18-1.81,0.55C81.86,106.6,82.35,107.75,83.24,108.27z"/>
				<path d="M99.18,140.49c0.38,0.24,0.76,0.48,1.23,0.77c-2.09,1.96-5.96,2.42-8.22,1c-25.36-15.86-50.72-31.72-76.06-47.6
					c-1.18-0.74-2.29-1.61-3.31-2.55c-3.03-2.77-3.2-5.06-0.78-8.37c0.89,1.12,1.65,2.41,2.72,3.35c1.61,1.41,3.37,2.67,5.18,3.81
					C46.35,107.46,72.77,123.97,99.18,140.49z"/>
				<path class="st1" d="M99.03,125.25c0.7,0.97,0.64,1.82-0.13,2.27c-0.92,0.53-1.54,0.08-2.09-0.69
					c-3.73-5.17-7.47-10.32-11.21-15.48c-0.47-0.65-0.7-1.38-0.05-1.93c0.4-0.34,1.08-0.35,1.56-0.49c0.42,0.5,0.65,0.74,0.85,1.01
					C91.66,115.05,95.35,120.14,99.03,125.25z"/>
				<path d="M85.09,141.15c0.91,0.57,1.77,1.11,2.66,1.66c-0.39,0.5-0.75,0.97-1.16,1.49c-0.76-0.48-1.51-0.94-2.32-1.45
					C84.54,142.31,84.79,141.77,85.09,141.15z"/>
				<path d="M73.56,133.91c0.89,0.56,1.73,1.08,2.61,1.63c-0.4,0.54-0.75,1.01-1.14,1.53c-0.78-0.49-1.5-0.94-2.35-1.47
					C72.95,135.07,73.24,134.53,73.56,133.91z"/>
				<path class="st1" d="M85.12,107.79c-0.35,0.62-1.25,0.85-1.88,0.48c-0.89-0.51-1.38-1.66-0.98-2.37
					c0.42-0.73,1.04-0.95,1.81-0.55C85.04,105.85,85.54,107.05,85.12,107.79z"/>
				<path d="M61.95,126.67c0.86,0.54,1.69,1.05,2.66,1.66c-0.39,0.51-0.75,0.98-1.15,1.49c-0.8-0.5-1.53-0.96-2.32-1.45
					C61.4,127.82,61.65,127.29,61.95,126.67z"/>
				<path d="M70.31,110.91c0.32,1.19-0.24,2.46-1.45,2.83c-1.62,0.49-3.29,0.82-4.95,1.2c-0.19,0.04-0.46-0.02-0.63-0.12
					c-1.73-1.06-3.45-2.14-5.38-3.35c3.41-0.8,6.56-1.57,9.72-2.26C68.9,108.93,69.97,109.7,70.31,110.91z"/>
				<path class="st1" d="M80.89,97.9c-1.41,1.02-3.11,0.97-4.58-0.28c-2.66-2.28-5.26-4.63-7.88-6.96c-1.83-1.63-3.64-3.27-5.48-4.9
					c-1.97-1.74-2.13-4.15-0.4-6.08c0.6-0.67,1.19-1.34,1.69-1.9C69.86,84.57,75.37,91.23,80.89,97.9z"/>
				<path d="M50.37,119.39c0.91,0.57,1.76,1.1,2.68,1.68c-0.42,0.53-0.81,1.01-1.22,1.52c-0.77-0.48-1.49-0.93-2.28-1.43
					C49.82,120.58,50.08,120.02,50.37,119.39z"/>
				<path d="M65.57,99.74c0.07,1.19-0.6,2.16-1.89,2.47c-4.84,1.14-9.69,2.25-14.54,3.35c-0.23,0.05-0.55,0.05-0.74-0.07
					c-1.76-1.07-3.49-2.17-5.41-3.36c0.36-0.12,0.52-0.19,0.69-0.23c6.24-1.44,12.49-2.89,18.73-4.31
					C64.1,97.2,65.48,98.18,65.57,99.74z"/>
				<path d="M25.31,103.76c0.87,0.54,1.7,1.06,2.6,1.63c-0.36,0.5-0.7,0.97-1.11,1.54c-0.83-0.52-1.55-0.97-2.37-1.48
					C24.72,104.89,24.99,104.37,25.31,103.76z"/>
				<path class="st1" d="M31.91,80.86c2.23,4.72,2.12,9.38-0.25,14.2c-3.1-1.94-6.09-3.75-9.03-5.67c-2.01-1.32-4.05-2.65-5.87-4.21
					c-2.73-2.34-2.92-4.4-1.01-7.46c1.39-2.23,2.79-4.46,4.26-6.81C24.4,73.82,29.48,75.71,31.91,80.86z"/>
				<path d="M13.74,96.43c0.94,0.59,1.75,1.1,2.67,1.67c-0.44,0.56-0.82,1.05-1.22,1.57c-0.8-0.5-1.52-0.95-2.3-1.44
					C13.17,97.64,13.43,97.07,13.74,96.43z"/>
			</g>
			<g>
			</g>
		</g>
	</g>
</g>
</svg>
