<?xml version="1.0" encoding="utf-8"?>
<!-- Generator: Adobe Illustrator 25.4.1, SVG Export Plug-In . SVG Version: 6.00 Build 0)  -->
<svg version="1.1" id="Capa_1" xmlns="http://www.w3.org/2000/svg" xmlns:xlink="http://www.w3.org/1999/xlink" x="0px" y="0px"
	 viewBox="0 0 48 47.47" style="enable-background:new 0 0 48 47.47;" xml:space="preserve">
<style type="text/css">
	.st0{fill:#FFFFFF;}
</style>
<g>
	<g>
		<path class="st0" d="M29.36,25.03l0.73-4.74h-4.55v-3.08c0-1.3,0.64-2.56,2.68-2.56h2.07V10.6c0,0-1.88-0.32-3.67-0.32
			c-3.75,0-6.2,2.27-6.2,6.39v3.62h-4.17v4.74h4.17V36.5h5.13V25.03H29.36z"/>
		<g>
			<path class="st0" d="M24,46.23c-12.41,0-22.5-10.09-22.5-22.5S11.59,1.24,24,1.24c12.41,0,22.5,10.09,22.5,22.5
				S36.41,46.23,24,46.23z M24,5.34c-10.14,0-18.4,8.25-18.4,18.4s8.25,18.4,18.4,18.4s18.4-8.25,18.4-18.4S34.14,5.34,24,5.34z"/>
		</g>
	</g>
</g>
</svg>
