<?xml version="1.0" encoding="utf-8"?>
<!-- Generator: Adobe Illustrator 25.4.1, SVG Export Plug-In . SVG Version: 6.00 Build 0)  -->
<svg version="1.1" id="Capa_1" xmlns="http://www.w3.org/2000/svg" xmlns:xlink="http://www.w3.org/1999/xlink" x="0px" y="0px"
	 viewBox="0 0 48 47.47" style="enable-background:new 0 0 48 47.47;" xml:space="preserve">
<style type="text/css">
	.st0{fill:#FFFFFF;}
</style>
<g>
	<g>
		<path class="st0" d="M35.58,9.68c-1.42,0-2.56,1.15-2.56,2.56c0,1.42,1.15,2.56,2.56,2.56c1.42,0,2.56-1.15,2.56-2.56
			C38.14,10.83,36.99,9.68,35.58,9.68"/>
		<path class="st0" d="M24.18,12.97c-5.94,0-10.77,4.83-10.77,10.77s4.83,10.77,10.77,10.77c5.94,0,10.77-4.83,10.77-10.77
			S30.12,12.97,24.18,12.97 M24.18,30.63c-3.8,0-6.9-3.09-6.9-6.9c0-3.8,3.09-6.9,6.9-6.9c3.8,0,6.9,3.09,6.9,6.9
			C31.08,27.54,27.98,30.63,24.18,30.63"/>
		<path class="st0" d="M32.73,45.6H15.27c-7.24,0-13.14-5.89-13.14-13.14V15c0-7.24,5.89-13.14,13.14-13.14h17.46
			c7.24,0,13.14,5.89,13.14,13.14v17.46C45.87,39.71,39.97,45.6,32.73,45.6 M15.27,5.98c-4.98,0-9.02,4.05-9.02,9.02v17.46
			c0,4.98,4.05,9.02,9.02,9.02h17.46c4.98,0,9.02-4.05,9.02-9.02V15c0-4.97-4.05-9.02-9.02-9.02H15.27z"/>
	</g>
</g>
</svg>
