<?xml version="1.0" encoding="utf-8"?>
<!-- Generator: Adobe Illustrator 25.4.1, SVG Export Plug-In . SVG Version: 6.00 Build 0)  -->
<svg version="1.1" id="Capa_1" xmlns="http://www.w3.org/2000/svg" xmlns:xlink="http://www.w3.org/1999/xlink" x="0px" y="0px"
	 viewBox="0 0 204.71 95.82" style="enable-background:new 0 0 204.71 95.82;" xml:space="preserve">
<style type="text/css">
	.st0{fill:#FFFFFF;}
</style>
<g>
	<path class="st0" d="M28.09,29.09h-1.8v5.97c4.53,0,6.81-0.48,6.81-3.32C33.1,29.7,31.66,29.09,28.09,29.09 M32.74,47.27
		l-1.36-4.77c-0.72-2.52-1.2-3.12-1.88-3.92l-3.2,0.2v8.49h-5.6V24.85h7.69c6.01,0,10.33,1.04,10.33,6.61c0,4.09-1.8,5.25-4.53,6.09
		c0.96,0.4,1.88,1.56,2.52,3.28l2.4,6.45H32.74z"/>
	<polygon class="st0" points="60.52,29.33 50.72,29.33 50.72,33.66 59.12,33.66 59.12,37.78 50.72,37.78 50.72,42.79 60.72,42.79 
		60.72,47.27 45.11,47.27 45.11,24.85 60.92,24.85 	"/>
	<path class="st0" d="M74.66,47.68c-4.13,0-9.53-1.44-9.53-11.62c0-10.25,7.13-11.61,10.25-11.61c3.48,0,5.37,1,5.37,1v4.41
		c0,0-2.77-0.96-5.21-0.96c-2.08,0-4.81,1.08-4.81,7.17c0,5.41,1.89,7.13,4.33,7.13c2.72,0,5.69-1,5.69-1v4.41
		C80.75,46.59,78.3,47.68,74.66,47.68"/>
	<path class="st0" d="M94.16,28.37c-2.8,0-4.41,2.04-4.41,7.69c0,5.37,1.6,7.57,4.41,7.57c2.8,0,4.4-2.09,4.4-7.57
		C98.57,30.37,96.97,28.37,94.16,28.37 M94.16,47.68c-4.37,0-10.01-1.56-10.01-11.62c0-10.05,5.69-11.61,10.01-11.61
		c4.29,0,10.01,1.56,10.01,11.61C104.17,46.11,98.45,47.68,94.16,47.68"/>
	<polygon class="st0" points="122.7,47.27 109.88,47.27 109.88,24.85 115.49,24.85 115.49,42.71 123.22,42.71 	"/>
	<polygon class="st0" points="142.7,29.33 132.89,29.33 132.89,33.66 141.3,33.66 141.3,37.78 132.89,37.78 132.89,42.79 
		142.9,42.79 142.9,47.27 127.28,47.27 127.28,24.85 143.1,24.85 	"/>
	<polygon class="st0" points="164.54,29.45 159.2,29.45 159.2,47.27 153.6,47.27 153.6,29.45 146.78,29.45 146.81,24.85 
		166.03,24.85 	"/>
	<path class="st0" d="M177.66,33.34c-0.92-3.28-1.52-5.73-1.52-5.73s-0.6,2.32-1.53,5.73l-1.48,5.37h6.01L177.66,33.34z
		 M181.23,47.27l-1.28-4.44h-7.61l-1.28,4.44h-5.93l7.41-22.43h7.21l7.41,22.43H181.23z"/>
	<path class="st0" d="M197.32,65.29H6.67V6.9h190.65V65.29z M1.1,70.82h201.76V1.32H1.1V70.82z"/>
	<path class="st0" d="M44.23,93.93c-3.53,0-4.57-1.49-4.57-4.53v-6.9h2.81v6.88c0,1.72,0.48,2.41,1.76,2.41
		c1.2,0,1.76-0.64,1.76-2.41V82.5h2.81v6.9C48.8,92.27,47.62,93.93,44.23,93.93"/>
	<path class="st0" d="M58.02,84.63h-0.9v2.99c2.27,0,3.41-0.24,3.41-1.67C60.53,84.93,59.81,84.63,58.02,84.63 M60.35,93.73
		l-0.68-2.39c-0.36-1.26-0.6-1.56-0.94-1.96l-1.6,0.1v4.25h-2.81V82.5h3.85c3.01,0,5.17,0.52,5.17,3.31c0,2.05-0.9,2.63-2.26,3.05
		c0.48,0.2,0.94,0.78,1.26,1.64l1.2,3.23H60.35z"/>
	<path class="st0" d="M71.8,88.86h-0.84v2.91h0.78c1.71,0,2.83-0.12,2.83-1.4C74.56,88.92,73.6,88.86,71.8,88.86 M71.7,84.47h-0.74
		v2.51h0.84c1.52,0,2.36-0.18,2.36-1.4C74.16,84.55,73.26,84.47,71.7,84.47 M71.6,93.73h-3.45V82.5h3.45c3.23,0,5.37,0.14,5.37,2.79
		c0,1.81-0.94,2.33-2.4,2.55c1.38,0.12,2.81,0.42,2.81,2.69C77.37,93.63,75.15,93.73,71.6,93.73"/>
	<path class="st0" d="M86.65,86.76c-0.46-1.65-0.76-2.87-0.76-2.87s-0.3,1.16-0.76,2.87l-0.74,2.68h3.01L86.65,86.76z M88.44,93.73
		l-0.64-2.22h-3.81l-0.64,2.22h-2.97l3.71-11.23h3.61l3.71,11.23H88.44z"/>
	<path class="st0" d="M101.89,93.73l-2.83-5.13c-0.62-1.14-1.36-2.86-1.36-2.86s0.32,2.05,0.32,3.81v4.19h-2.81V82.5h2.89l2.61,4.63
		c0.74,1.3,1.44,3.06,1.44,3.06s-0.32-2.27-0.32-3.81V82.5h2.81v11.23H101.89z"/>
	<path class="st0" d="M125.41,93.73l-0.08-4.13c-0.02-1.48,0.16-3.63,0.16-3.63s-0.76,1.77-1.6,3.03l-2,2.99L119.86,89
		c-0.8-1.19-1.59-3.01-1.59-3.01s0.18,2.13,0.16,3.61l-0.08,4.13h-2.79l0.48-11.23h2.27l3.57,5.96l3.63-5.96h2.2l0.48,11.23H125.41z
		"/>
	<path class="st0" d="M138.18,86.76c-0.46-1.65-0.76-2.87-0.76-2.87s-0.3,1.16-0.76,2.87l-0.74,2.68h3.01L138.18,86.76z
		 M139.97,93.73l-0.64-2.22h-3.81l-0.64,2.22h-2.97l3.71-11.23h3.61l3.71,11.23H139.97z"/>
	<polygon class="st0" points="153.16,93.73 146.74,93.73 146.74,82.5 149.55,82.5 149.55,91.45 153.42,91.45 	"/>
	<polygon class="st0" points="163.65,93.73 157.23,93.73 157.23,82.5 160.04,82.5 160.04,91.45 163.9,91.45 	"/>
</g>
</svg>
