<?xml version="1.0" encoding="utf-8"?>
<!-- Generator: Adobe Illustrator 25.4.1, SVG Export Plug-In . SVG Version: 6.00 Build 0)  -->
<svg version="1.1" id="Capa_1" xmlns="http://www.w3.org/2000/svg" xmlns:xlink="http://www.w3.org/1999/xlink" x="0px" y="0px"
	 viewBox="0 0 179.65 164" style="enable-background:new 0 0 179.65 164;" xml:space="preserve">
<style type="text/css">
	.st0{fill:#FFFFFF;}
</style>
<g>
	<g id="XMLID_00000076598297356225470210000010871162825140212873_">
		<g>
			<path class="st0" d="M164.03,74.97c0.69,1.5,0.13,2.84-0.91,3.88c-1.42,1.43-2.93,2.81-4.55,3.99
				c-7.46,5.41-15.47,9.93-23.49,14.43c-2.65,1.49-5.34,2.9-7.98,4.4c-0.44,0.25-0.89,0.72-1.08,1.19
				c-9.21,22.93-32.14,36.17-55.13,34.75c-18.06-1.11-32-9.49-41.97-24.48c-3.23-4.85-4.98-10.25-4.41-16.22
				c0.09-0.95,0.25-1.9,0.39-2.86c0.48-1.29,0.97-2.58,1.45-3.87c0.09-0.08,0.22-0.14,0.26-0.23c2.48-5.12,6.73-8.02,12.02-9.63
				c2.16-0.66,4.34-1.31,6.47-2.06c1.79-0.63,3.31-1.69,4.36-3.33c2.09-3.24,2.12-6.55,0.22-9.85c-1.17-2.03-2.47-3.99-3.67-6
				c-1.92-3.22-3.17-6.65-2.99-10.46c0.07-1.48,0.36-2.96,0.55-4.43c0.51-1.37,1.02-2.74,1.54-4.1c1.6-1.96,3-4.14,4.83-5.83
				c4.2-3.87,9.42-5.79,14.95-6.83c10.41-1.95,20.75-1.6,30.49,2.76c21.5,9.64,32.97,26.45,34.66,49.95
				c0.02,0.36,0.02,0.72,0.04,1.09c0,0.08,0.04,0.15,0.1,0.38c0.4-0.13,0.8-0.26,1.19-0.4c8.1-2.86,16.16-5.82,24.59-7.61
				c1.45-0.31,2.96-0.46,4.45-0.54C161.96,72.97,163.33,73.44,164.03,74.97z M97.02,111.76c20.51-10.04,40.99-20.37,59.9-33.58
				c-22.29,5.8-43.45,14.59-64.56,23.7C93.95,105.27,95.45,108.44,97.02,111.76z M112.25,116.28c2.93-3.08,5.32-6.57,7.42-10.69
				c-0.79,0.4-1.28,0.66-1.77,0.9c-5.51,2.74-10.98,5.57-16.55,8.2c-2.53,1.19-4.62,2.65-6.39,4.91c-4.14,5.3-9.62,8.34-16.52,8.35
				c-4.73,0.01-9.16-1.3-13.21-3.62c-2.93-1.68-5.64-3.75-8.4-5.72c-0.96-0.69-1.17-1.73-0.63-2.83c0.52-1.05,1.47-1.51,2.53-1.19
				c3.13,0.95,5.24-0.39,6.9-2.87c1.37-2.05,2.68-4.15,4.08-6.18c2.94-4.24,6.68-7.33,12.04-7.69c2.07-0.14,4.18,0.24,6.27,0.34
				c0.58,0.03,1.23,0.1,1.75-0.11c11.62-4.76,23.22-9.57,34.85-14.32c0.68-0.28,0.87-0.63,0.88-1.32
				c0.28-21.01-13.12-40.84-32.73-48.39c-8.5-3.27-17.26-3.73-26.16-2.26c-4.27,0.71-8.31,2.12-11.95,4.54
				c-6.41,4.26-9.49,13.06-4.66,20.45c1.13,1.73,2.21,3.49,3.26,5.27c1.36,2.29,2.34,4.71,2.41,7.43
				c0.17,6.24-3.56,11.29-10.02,13.51c-2.38,0.81-4.81,1.44-7.17,2.28c-5.55,2-8.51,6.14-9.32,11.84c-0.66,4.68,0.8,8.96,3.23,12.83
				c7.59,12.12,18.32,19.95,32.49,22.32C83.39,135.34,99.26,129.88,112.25,116.28z M92.49,115.34c0.25-0.34,0.37-1,0.21-1.36
				c-1.53-3.53-3.11-7.03-4.73-10.53c-0.15-0.33-0.58-0.68-0.93-0.75c-5.49-1.2-9.99,0.27-13.25,5c-0.42,0.6-0.82,1.2-1.22,1.8
				c-2.23,3.35-4.05,7.04-8.06,9.25c1.63,0.86,3,1.65,4.42,2.31C77.9,125.17,86.21,124.03,92.49,115.34z"/>
			<path d="M156.92,78.18c-18.91,13.21-39.39,23.53-59.9,33.58c-1.57-3.32-3.06-6.49-4.66-9.87
				C113.47,92.78,134.63,83.98,156.92,78.18z"/>
			<path d="M119.67,105.58c-2.09,4.12-4.48,7.62-7.42,10.69c-12.99,13.6-28.85,19.06-47.38,15.97c-14.18-2.37-24.9-10.2-32.49-22.32
				c-2.43-3.87-3.88-8.16-3.23-12.83c0.81-5.7,3.76-9.84,9.32-11.84c2.36-0.84,4.8-1.47,7.17-2.28c6.46-2.22,10.2-7.28,10.02-13.51
				c-0.08-2.71-1.05-5.14-2.41-7.43c-1.06-1.78-2.13-3.54-3.26-5.27c-4.83-7.39-1.75-16.19,4.66-20.45
				c3.64-2.43,7.68-3.84,11.95-4.54c8.9-1.47,17.67-1.01,26.16,2.26c19.61,7.54,33.01,27.38,32.73,48.39
				c-0.01,0.7-0.19,1.04-0.88,1.32c-11.62,4.76-23.23,9.56-34.85,14.32c-0.52,0.21-1.17,0.14-1.75,0.11
				c-2.1-0.11-4.2-0.49-6.27-0.34c-5.36,0.36-9.1,3.46-12.04,7.69c-1.4,2.03-2.71,4.12-4.08,6.18c-1.66,2.48-3.76,3.82-6.9,2.87
				c-1.06-0.32-2.01,0.14-2.53,1.19c-0.54,1.1-0.33,2.14,0.63,2.83c2.76,1.97,5.47,4.05,8.4,5.72c4.05,2.32,8.48,3.63,13.21,3.62
				c6.9-0.01,12.38-3.05,16.52-8.35c1.77-2.26,3.86-3.72,6.39-4.91c5.57-2.62,11.04-5.45,16.55-8.2
				C118.39,106.24,118.87,105.99,119.67,105.58z M105.09,88.08c5.42,1.91,11.05-0.8,12.94-6.22c1.78-5.1-1.07-10.84-6.26-12.66
				c-5.18-1.81-10.94,0.91-12.78,6.03C97.12,80.41,99.9,86.25,105.09,88.08z M89.33,65.14c5.19,1.92,11.05-0.78,12.93-5.95
				c1.88-5.18-0.82-10.94-6.04-12.9c-5.18-1.94-10.96,0.73-12.89,5.96C81.42,57.44,84.1,63.21,89.33,65.14z M59.64,104.69
				c1.97-5.19-0.63-11.01-5.8-12.97c-5.19-1.97-11.05,0.62-13.02,5.75c-1.96,5.11,0.69,11.02,5.83,12.99
				C51.85,112.43,57.68,109.85,59.64,104.69z M74.38,57.18c2.03-5.1-0.49-10.91-5.61-12.94c-5.29-2.1-11.04,0.34-13.14,5.57
				c-2.03,5.07,0.49,10.9,5.61,12.94C66.51,64.87,72.29,62.42,74.38,57.18z"/>
			<path class="st0" d="M118.03,81.86c-1.89,5.42-7.52,8.12-12.94,6.22c-5.19-1.82-7.97-7.67-6.11-12.84
				c1.84-5.12,7.61-7.84,12.78-6.03C116.96,71.02,119.8,76.76,118.03,81.86z M113.58,80.61c1.07-2.83-0.37-5.96-3.25-7.03
				c-2.79-1.04-5.95,0.37-7,3.13c-1.06,2.77,0.43,5.97,3.28,7.04C109.41,84.81,112.53,83.4,113.58,80.61z"/>
			<path d="M110.34,73.59c2.88,1.07,4.32,4.19,3.25,7.03c-1.06,2.79-4.18,4.2-6.97,3.15c-2.85-1.07-4.34-4.27-3.28-7.04
				C104.39,73.96,107.55,72.55,110.34,73.59z"/>
			<path d="M92.7,113.97c0.16,0.37,0.03,1.02-0.21,1.36c-6.28,8.69-14.59,9.84-23.56,5.72c-1.43-0.65-2.79-1.45-4.42-2.31
				c4.01-2.21,5.83-5.91,8.06-9.25c0.4-0.6,0.81-1.21,1.22-1.8c3.26-4.73,7.77-6.2,13.25-5c0.35,0.08,0.78,0.42,0.93,0.75
				C89.59,106.94,91.18,110.45,92.7,113.97z"/>
			<path class="st0" d="M102.26,59.2c-1.88,5.17-7.74,7.87-12.93,5.95c-5.23-1.94-7.92-7.7-6-12.88c1.93-5.24,7.71-7.9,12.89-5.96
				C101.44,48.25,104.14,54.02,102.26,59.2z M97.91,57.71c1.07-2.75-0.38-5.96-3.2-7.07c-2.81-1.1-5.98,0.32-7.06,3.15
				c-1.06,2.81,0.39,5.97,3.24,7.02C93.65,61.84,96.85,60.42,97.91,57.71z"/>
			<path d="M94.71,50.64c2.82,1.11,4.27,4.32,3.2,7.07c-1.06,2.71-4.27,4.13-7.02,3.1c-2.84-1.05-4.3-4.21-3.24-7.02
				C88.73,50.96,91.9,49.54,94.71,50.64z"/>
			<path class="st0" d="M53.84,91.72c5.17,1.96,7.78,7.78,5.8,12.97c-1.96,5.16-7.79,7.75-12.99,5.77
				c-5.14-1.96-7.8-7.87-5.83-12.99C42.79,92.34,48.65,89.75,53.84,91.72z M55.35,103.06c1.08-2.82-0.34-5.99-3.16-7.05
				c-2.82-1.07-6.06,0.37-7.09,3.15c-1.02,2.74,0.41,5.9,3.16,6.99C51.07,107.25,54.27,105.86,55.35,103.06z"/>
			<path class="st0" d="M68.77,44.25c5.12,2.03,7.63,7.84,5.61,12.94c-2.09,5.23-7.87,7.69-13.13,5.58
				c-5.12-2.05-7.64-7.87-5.61-12.94C57.73,44.58,63.48,42.15,68.77,44.25z M70.14,55.45c1.08-2.8-0.39-5.93-3.28-7.01
				c-2.82-1.05-5.91,0.33-6.99,3.11c-1.07,2.8,0.39,5.94,3.28,7.02C65.96,59.62,69.07,58.24,70.14,55.45z"/>
			<path d="M52.19,96c2.82,1.07,4.24,4.23,3.16,7.05c-1.08,2.8-4.28,4.19-7.09,3.08c-2.75-1.08-4.18-4.25-3.16-6.99
				C46.13,96.37,49.36,94.93,52.19,96z"/>
			<path d="M66.86,48.44c2.89,1.08,4.36,4.22,3.28,7.01c-1.08,2.79-4.18,4.17-6.99,3.12c-2.89-1.07-4.35-4.22-3.28-7.02
				C60.95,48.77,64.04,47.39,66.86,48.44z"/>
		</g>
		<g>
		</g>
	</g>
</g>
</svg>
