<?xml version="1.0" encoding="utf-8"?>
<!-- Generator: Adobe Illustrator 25.4.1, SVG Export Plug-In . SVG Version: 6.00 Build 0)  -->
<svg version="1.1" id="Capa_1" xmlns="http://www.w3.org/2000/svg" xmlns:xlink="http://www.w3.org/1999/xlink" x="0px" y="0px"
	 viewBox="0 0 179.65 164" style="enable-background:new 0 0 179.65 164;" xml:space="preserve">
<style type="text/css">
	.st0{fill:#FFFFFF;}
</style>
<g>
	<g id="XMLID_00000056410029752710133700000009209697862875385523_">
		<g>
			<path class="st0" d="M20.45,74.79c-2.54-2.45-2.89-5.96-0.1-8.81c17.74-18.1,35.41-36.27,53.01-54.51
				c2.75-2.85,6.27-2.61,8.8-0.14c26.58,25.95,53.21,51.85,79.9,77.7c2.52,2.44,2.89,5.95,0.09,8.8
				c-17.77,18.13-35.43,36.36-53.13,54.56c-2.8,2.88-5.7,2.93-8.56,0.15c-13.34-12.98-26.69-25.96-40.04-38.94
				C47.11,100.66,33.83,87.67,20.45,74.79z M22.98,72.23c12.55,12.21,25.1,24.41,37.66,36.62c0.32,0.31,0.64,0.62,0.99,0.97
				c4.86-5,9.59-9.85,14.31-14.71c0.15-0.15,0.27-0.32,0.48-0.57c-3.16-3.87-4.78-8.3-4.59-13.31c0.19-5.06,2.08-9.43,5.66-13.03
				c2.98-3,6.57-4.83,10.73-5.48c5.64-0.88,10.7,0.59,15.21,3.98c4.97-5.11,9.88-10.16,14.82-15.24c-0.41-0.4-0.75-0.73-1.08-1.05
				C104.7,38.27,92.25,26.16,79.78,14.04c-0.24-0.24-0.48-0.48-0.74-0.71c-0.84-0.73-1.72-0.75-2.5,0.04
				c-3.25,3.31-6.48,6.65-9.84,10.11c0.41,0.4,0.71,0.69,1.01,0.99c2.41,2.35,4.83,4.69,7.24,7.04c1.51,1.47,1.51,2.18,0.01,3.72
				c-1.39,1.44-2.77,2.89-4.2,4.3c-0.53,0.51-0.62,0.93-0.33,1.65c2.5,6.41,1.54,12.34-3.23,17.25c-4.81,4.94-10.74,6.1-17.26,3.71
				c-0.7-0.26-1.06-0.11-1.53,0.38c-1.48,1.58-3.01,3.13-4.53,4.68c-1.18,1.2-2.03,1.22-3.26,0.03c-2.48-2.39-4.95-4.81-7.42-7.21
				c-0.33-0.32-0.65-0.63-1.04-1.02c-3.14,3.23-6.16,6.34-9.19,9.45C21.37,70.08,21.37,70.67,22.98,72.23z M64.5,112.59
				c12.94,12.59,25.88,25.19,38.83,37.77c0.95,0.93,1.83,0.9,2.78-0.06c3.1-3.16,6.18-6.34,9.27-9.52c0.11-0.11,0.19-0.27,0.36-0.51
				c-0.35-0.34-0.67-0.65-1-0.97c-2.45-2.38-4.89-4.75-7.33-7.13c-1.29-1.26-1.31-2.09-0.08-3.35c1.48-1.53,2.95-3.08,4.46-4.57
				c0.53-0.52,0.6-0.94,0.32-1.66c-2.49-6.42-1.49-12.32,3.3-17.23c4.79-4.9,10.67-6.04,17.15-3.72c0.66,0.24,1.06,0.19,1.54-0.33
				c1.48-1.59,3.01-3.13,4.53-4.68c1.18-1.2,2.04-1.21,3.26-0.02c2.48,2.4,4.95,4.81,7.42,7.22c0.32,0.32,0.65,0.63,1.04,1.01
				c3.18-3.27,6.23-6.41,9.28-9.55c1.47-1.51,1.46-2.16-0.02-3.6c-12.58-12.23-25.16-24.47-37.74-36.7
				c-0.32-0.31-0.64-0.62-0.97-0.95c-5,5.14-9.87,10.15-14.78,15.2c7.07,8.78,5.1,19.68-0.53,25.86c-5.3,5.83-16.6,9.55-26.57,2.08
				c-4.91,5.05-9.82,10.09-14.71,15.13C64.41,112.45,64.44,112.53,64.5,112.59z M34.76,56.51c2.5,2.43,4.93,4.79,7.41,7.21
				c9.9-10.18,19.7-20.26,29.49-30.33c-2.52-2.45-4.98-4.84-7.41-7.21C54.39,36.33,44.58,46.41,34.76,56.51z M110.85,130.43
				c2.53,2.46,4.98,4.85,7.4,7.2c9.87-10.15,19.68-20.23,29.48-30.31c-2.51-2.44-4.94-4.8-7.4-7.2
				C130.43,110.3,120.62,120.38,110.85,130.43z M103.58,71.92C96.22,79.49,88.92,87,81.61,94.52c6.46,4.91,15.43,4.25,21-1.49
				C108.27,87.2,108.71,78.22,103.58,71.92z M78.98,91.89c7.29-7.49,14.58-14.99,21.94-22.56c-6.54-5.09-15.72-4.25-21.42,1.89
				C74.19,76.94,73.93,86.37,78.98,91.89z M115.18,120.59c5.16-5.31,10.27-10.56,15.49-15.92c-4.96-1.36-9.19-0.38-12.75,3.09
				C114.55,111.03,113.45,116.42,115.18,120.59z M67.27,43.22c-5.1,5.24-10.19,10.47-15.29,15.72c3.57,1.87,9.57,0.41,12.85-3.1
				C68.04,52.41,69.21,46.4,67.27,43.22z"/>
			<path d="M60.63,108.85c-12.55-12.21-25.1-24.41-37.66-36.62c-1.6-1.56-1.61-2.15-0.02-3.79c3.03-3.11,6.05-6.22,9.19-9.45
				c0.39,0.38,0.72,0.7,1.04,1.02c2.47,2.41,4.94,4.82,7.42,7.21c1.23,1.19,2.08,1.17,3.26-0.03c1.52-1.55,3.05-3.1,4.53-4.68
				c0.46-0.49,0.83-0.64,1.53-0.38c6.52,2.39,12.45,1.24,17.26-3.71c4.77-4.91,5.73-10.84,3.23-17.25
				c-0.28-0.72-0.19-1.13,0.33-1.65c1.43-1.4,2.8-2.86,4.2-4.3c1.49-1.54,1.5-2.25-0.01-3.72c-2.41-2.35-4.82-4.69-7.24-7.04
				c-0.3-0.29-0.6-0.58-1.01-0.99c3.37-3.46,6.59-6.8,9.84-10.11c0.78-0.79,1.66-0.77,2.5-0.04c0.26,0.23,0.5,0.47,0.74,0.71
				c12.46,12.12,24.92,24.24,37.38,36.35c0.34,0.33,0.67,0.65,1.08,1.05c-4.94,5.08-9.85,10.13-14.82,15.24
				c-4.51-3.39-9.57-4.86-15.21-3.98c-4.16,0.65-7.76,2.48-10.73,5.48c-3.58,3.6-5.47,7.97-5.66,13.03
				c-0.19,5.01,1.43,9.44,4.59,13.31c-0.21,0.26-0.34,0.42-0.48,0.57c-4.72,4.86-9.44,9.71-14.31,14.71
				C61.27,109.47,60.95,109.16,60.63,108.85z"/>
			<path d="M103.33,150.36c-12.95-12.58-25.89-25.18-38.83-37.77c-0.06-0.06-0.09-0.14-0.19-0.29c4.9-5.03,9.8-10.08,14.71-15.13
				c9.98,7.46,21.27,3.74,26.57-2.08c5.62-6.18,7.59-17.09,0.53-25.86c4.92-5.06,9.78-10.06,14.78-15.2
				c0.33,0.32,0.65,0.64,0.97,0.95c12.58,12.23,25.16,24.47,37.74,36.7c1.48,1.44,1.49,2.09,0.02,3.6
				c-3.05,3.14-6.11,6.28-9.28,9.55c-0.39-0.38-0.71-0.69-1.04-1.01c-2.47-2.41-4.94-4.82-7.42-7.22c-1.23-1.19-2.08-1.18-3.26,0.02
				c-1.52,1.55-3.06,3.09-4.53,4.68c-0.49,0.52-0.88,0.56-1.54,0.33c-6.48-2.31-12.36-1.18-17.15,3.72
				c-4.79,4.91-5.79,10.81-3.3,17.23c0.28,0.71,0.21,1.13-0.32,1.66c-1.52,1.49-2.98,3.04-4.46,4.57c-1.23,1.27-1.21,2.1,0.08,3.35
				c2.44,2.38,4.88,4.75,7.33,7.13c0.33,0.32,0.65,0.64,1,0.97c-0.17,0.24-0.25,0.39-0.36,0.51c-3.09,3.18-6.16,6.36-9.27,9.52
				C105.17,151.27,104.29,151.29,103.33,150.36z"/>
			<path d="M42.18,63.71c-2.48-2.42-4.91-4.78-7.41-7.21c9.82-10.1,19.62-20.18,29.49-30.33c2.44,2.37,4.89,4.76,7.41,7.21
				C61.87,43.46,52.07,53.54,42.18,63.71z"/>
			<path d="M118.25,137.62c-2.42-2.35-4.87-4.74-7.4-7.2c9.77-10.05,19.57-20.13,29.48-30.31c2.46,2.4,4.89,4.76,7.4,7.2
				C137.93,117.39,128.12,127.47,118.25,137.62z"/>
			<path d="M81.61,94.52c7.31-7.52,14.61-15.03,21.97-22.6c5.13,6.3,4.68,15.28-0.98,21.11C97.04,98.76,88.07,99.42,81.61,94.52z"/>
			<path d="M100.92,69.33C93.55,76.9,86.27,84.4,78.98,91.89c-5.05-5.52-4.79-14.95,0.52-20.67
				C85.19,65.08,94.37,64.24,100.92,69.33z"/>
			<path class="st0" d="M130.67,104.66c-5.22,5.37-10.32,10.61-15.49,15.92c-1.73-4.17-0.63-9.55,2.74-12.84
				C121.47,104.29,125.7,103.3,130.67,104.66z"/>
			<path class="st0" d="M51.98,58.94c5.1-5.25,10.19-10.48,15.29-15.72c1.94,3.18,0.78,9.19-2.44,12.62
				C61.55,59.35,55.55,60.82,51.98,58.94z"/>
		</g>
		<g>
		</g>
	</g>
</g>
</svg>
