<?xml version="1.0" encoding="utf-8"?>
<!-- Generator: Adobe Illustrator 25.4.1, SVG Export Plug-In . SVG Version: 6.00 Build 0)  -->
<svg version="1.1" id="Capa_1" xmlns="http://www.w3.org/2000/svg" xmlns:xlink="http://www.w3.org/1999/xlink" x="0px" y="0px"
	 viewBox="0 0 179.65 164" style="enable-background:new 0 0 179.65 164;" xml:space="preserve">
<style type="text/css">
	.st0{fill:#FFFFFF;}
</style>
<g>
	<g id="XMLID_00000109731267161828181760000017760651923638875056_">
		<g>
			<path class="st0" d="M145.07,52.16c4.05,4.07,4.07,9.6,0.03,13.67c-6.56,6.59-13.14,13.16-19.72,19.72
				c-0.29,0.29-0.69,0.47-1.24,0.83c1.75,0.75,3.16,1.2,4.41,1.93c1.79,1.04,3.63,2.1,5.14,3.5c2.65,2.45,3.25,5.54,1.93,8.95
				c-1.62,4.19-4.87,6.66-8.89,8.26c-4.32,1.72-8.87,2.33-13.47,2.49c-4.24,0.14-8.49,0.06-12.74,0.02
				c-0.79-0.01-1.33,0.21-1.89,0.76c-9.27,9.3-18.55,18.59-27.86,27.84c-0.63,0.63-1.53,1.15-2.4,1.36
				c-7.15,1.71-14.32,3.33-21.48,4.97c-1.85,0.42-2.91-0.61-2.49-2.43c1.66-7.24,3.31-14.48,5.03-21.7
				c0.18-0.76,0.64-1.55,1.19-2.11c2.93-3.02,5.93-5.99,8.91-8.96c0.29-0.29,0.67-0.5,1-0.75c-0.07-0.13-0.13-0.26-0.19-0.39
				c-1.33,0.1-2.66,0.16-3.98,0.3c-4.39,0.48-8.71,1.25-12.72,3.22c-4.59,2.26-7.56,5.78-8.11,11.01c-0.3,2.9,0.5,5.61,2.06,8
				c1.17,1.8,2.61,3.43,4.02,5.05c0.94,1.08,1.13,2.04,0.32,2.88c-0.78,0.81-1.8,0.78-2.8-0.18c-3.87-3.73-6.77-8.01-7.21-13.53
				c-0.46-5.78,1.84-10.43,6.26-14.05c3.81-3.12,8.36-4.61,13.12-5.33c4.04-0.6,8.15-0.78,12.22-1.19c0.51-0.05,1.14-0.23,1.49-0.57
				c7.65-7.6,15.26-15.23,22.87-22.85c0.16-0.16,0.3-0.33,0.51-0.58c-2.44-0.67-4.82-1.2-7.13-1.98c-2.43-0.82-4.79-1.88-7.17-2.85
				c-0.35-0.14-0.66-0.37-0.98-0.58c-4.78-3.09-5.6-7.27-2.29-11.9c2.42-3.39,5.8-5.74,9.12-8.15c2.66-1.93,5.29-3.93,7.82-6.03
				c0.91-0.75,1.62-1.81,2.23-2.85c1.09-1.88,0.91-3.58-0.83-4.86c-1.78-1.31-3.75-2.46-5.79-3.28c-5.35-2.14-11-3.09-16.68-3.89
				c-10.87-1.54-21.82-2.13-32.79-2.26c-1.04-0.01-1.83-0.3-2.41-1.16c0-0.83,0-1.67,0-2.5c2.58,0,5.16,0,7.74,0
				c2.72,0.15,5.44,0.29,8.17,0.46c11.17,0.68,22.32,1.62,33.18,4.57c3.37,0.92,6.66,2.1,9.56,4.12c2.08,1.45,3.72,3.24,4.06,5.91
				c0.23,1.81-0.28,3.45-1.18,4.99c-1.64,2.82-4.06,4.89-6.64,6.79c-3.02,2.23-6.15,4.31-9.08,6.65c-1.51,1.22-2.85,2.75-3.97,4.34
				c-1.52,2.15-1.12,3.82,0.98,5.4c2.59,1.95,5.61,2.97,8.68,3.84c2.48,0.7,5,1.23,7.49,1.89c0.8,0.22,1.3,0.03,1.87-0.55
				c10.82-10.86,21.67-21.69,32.5-32.54c2.97-2.97,6.42-3.99,10.37-2.41c1.23,0.49,2.37,1.37,3.35,2.28
				C140.83,47.81,142.94,50,145.07,52.16z M143.18,62.5c1.83-2.08,1.76-5.16-0.14-7.17c-2.42-2.56-4.92-5.05-7.47-7.49
				c-1.94-1.85-4.97-2.05-6.98-0.33c-1.62,1.38-2.96,3.1-4.36,4.59c4.81,4.81,9.74,9.74,14.61,14.61
				C140.26,65.35,141.83,64.03,143.18,62.5z M132.03,99.91c1.05-2.3,0.7-4.16-1.17-5.85c-0.61-0.56-1.28-1.11-2.02-1.46
				c-2.11-1.01-4.28-1.9-6.41-2.87c-0.7-0.32-1.14-0.12-1.66,0.41c-5.61,5.65-11.25,11.28-16.88,16.91
				c-0.23,0.23-0.43,0.49-0.73,0.84c0.44,0.05,0.73,0.12,1.02,0.11c4.13-0.12,8.27-0.12,12.38-0.42c3.55-0.27,7.05-0.99,10.3-2.6
				C129.13,103.84,130.96,102.26,132.03,99.91z M130.11,75.4c1.94-1.94,3.94-3.94,5.95-5.96c-4.87-4.87-9.8-9.8-14.64-14.64
				c-1.98,2-3.99,4.04-5.92,5.98C120.33,65.62,125.25,70.54,130.11,75.4z M127.09,78.26c-4.82-4.82-9.74-9.74-14.4-14.4
				c-18.41,18.4-36.94,36.91-55.41,55.37c1.36,0.28,2.91,0.6,4.46,0.92c1.49,0.31,1.9,0.8,1.91,2.32c0.01,1.55,0,3.09,0,4.74
				c1.69,0,3.24-0.01,4.78,0c1.45,0.01,1.97,0.44,2.27,1.84c0.33,1.58,0.65,3.17,0.95,4.64C90.21,115.13,108.74,96.6,127.09,78.26z
				 M67.56,137.94c0.74-0.18,1.13-0.62,0.91-1.5c-0.38-1.58-0.68-3.18-0.95-4.79c-0.1-0.62-0.36-0.82-0.97-0.8
				c-1.51,0.03-3.03,0.04-4.55,0c-1.27-0.03-1.94-0.74-2-2c-0.03-0.76,0-1.51-0.01-2.27c0-0.8,0.06-1.6-0.03-2.38
				c-0.03-0.3-0.38-0.73-0.65-0.79c-1.58-0.37-3.2-0.61-4.78-0.99c-0.97-0.23-1.44,0.12-1.64,1c-0.47,1.99-0.94,3.98-1.35,5.98
				c-0.07,0.33,0.1,0.82,0.33,1.06c2.82,2.87,5.66,5.71,8.52,8.52c0.24,0.24,0.74,0.41,1.06,0.34
				C63.51,138.9,65.54,138.44,67.56,137.94z M56.53,140.48c-2.1-2.09-4.08-4.06-6.17-6.13c-0.61,2.66-1.2,5.25-1.83,8.01
				C51.33,141.69,53.91,141.09,56.53,140.48z"/>
			<path d="M143.04,55.33c1.9,2.01,1.97,5.09,0.14,7.17c-1.34,1.53-2.92,2.85-4.33,4.21c-4.87-4.87-9.8-9.8-14.61-14.61
				c1.4-1.5,2.73-3.21,4.36-4.59c2.01-1.72,5.04-1.52,6.98,0.33C138.11,50.28,140.61,52.77,143.04,55.33z"/>
			<path class="st0" d="M136.06,69.44c-2.01,2.02-4.01,4.02-5.95,5.96c-4.85-4.86-9.77-9.78-14.61-14.62
				c1.93-1.94,3.94-3.98,5.92-5.98C126.26,59.64,131.18,64.57,136.06,69.44z"/>
			<path d="M112.68,63.86c4.66,4.66,9.59,9.58,14.4,14.4c-18.35,18.34-36.87,36.87-55.44,55.43c-0.3-1.47-0.62-3.05-0.95-4.64
				c-0.29-1.4-0.82-1.83-2.27-1.84c-1.55-0.01-3.1,0-4.78,0c0-1.65,0.01-3.19,0-4.74c-0.01-1.52-0.41-2.01-1.91-2.32
				c-1.55-0.33-3.11-0.64-4.46-0.92C75.75,100.77,94.27,82.26,112.68,63.86z"/>
			<path class="st0" d="M68.47,136.44c0.21,0.88-0.18,1.32-0.91,1.5c-2.02,0.5-4.05,0.97-6.09,1.38c-0.32,0.07-0.82-0.1-1.06-0.34
				c-2.87-2.82-5.71-5.66-8.52-8.52c-0.23-0.24-0.4-0.74-0.33-1.06c0.4-2,0.88-3.99,1.35-5.98c0.2-0.88,0.68-1.24,1.64-1
				c1.58,0.38,3.2,0.61,4.78,0.99c0.28,0.06,0.62,0.5,0.65,0.79c0.09,0.78,0.03,1.59,0.03,2.38c0,0.76-0.02,1.51,0.01,2.27
				c0.05,1.27,0.73,1.97,2,2c1.51,0.04,3.03,0.03,4.55,0c0.61-0.01,0.86,0.18,0.97,0.8C67.79,133.25,68.09,134.86,68.47,136.44z"/>
			<path d="M50.37,134.34c2.09,2.08,4.07,4.05,6.17,6.13c-2.62,0.61-5.2,1.22-8,1.87C49.16,139.6,49.76,137.01,50.37,134.34z"/>
		</g>
		<g>
		</g>
	</g>
</g>
</svg>
