<?xml version="1.0" encoding="utf-8"?>
<!-- Generator: Adobe Illustrator 25.4.1, SVG Export Plug-In . SVG Version: 6.00 Build 0)  -->
<svg version="1.1" id="Capa_1" xmlns="http://www.w3.org/2000/svg" xmlns:xlink="http://www.w3.org/1999/xlink" x="0px" y="0px"
	 viewBox="0 0 179.65 164" style="enable-background:new 0 0 179.65 164;" xml:space="preserve">
<style type="text/css">
	.st0{fill:#FFFFFF;}
</style>
<g>
	<path class="st0" d="M153.95,45.62c-3.27,18.83-6.55,37.66-9.82,56.49c-0.35,0.69-0.65,1.41-1.07,2.06
		c-2.38,3.74-5.78,5.58-10.21,5.05c-3.19-0.38-6.34-1-9.5-1.61c-2.62-0.51-4.12-2.79-3.74-5.5c0.12-0.88,0.3-1.75,0.46-2.69
		c-11.38-1.98-22.63-3.94-33.97-5.91c-0.37,2.1-0.73,4.2-1.12,6.44c0.46,0.08,0.91,0.16,1.36,0.24c4.39,0.81,8.78,1.59,13.16,2.45
		c5.09,1,8.17,4.18,9.25,9.15c1.56,7.18,3,14.39,4.31,21.62c0.63,3.51,0.31,7.02-1.44,10.28c-2.1,3.91-6.29,6.22-10.75,5.7
		c-4.67-0.54-8.03-2.89-9.61-7.46c-0.13-0.37-0.25-0.74-0.38-1.11c-0.04-0.11-0.12-0.2-0.22,0.02c-1.67-0.14-3.42-0.02-5-0.48
		c-2.52-0.72-4.05-2.62-4.58-5.18c-0.18-0.86-0.55-1.14-1.35-1.25c-1.74-0.25-3.47-0.62-5.21-0.87c-0.33-0.05-0.87,0.11-1.05,0.37
		c-3.08,4.23-6.67,4.95-11.16,2.08c-0.3,0.35-0.63,0.72-0.93,1.1c-3.09,3.99-8.01,5.31-12.97,3.46c-4.41-1.64-7.28-6.19-7-11.02
		c0.17-2.96,1.1-5.68,2.51-8.24c0.26-0.47,0.53-0.94,0.8-1.41l3.33,1.5c-0.79,1.39-1.54,2.79-2.15,4.26
		c-0.7,1.66-0.91,3.66-0.84,5.49c0.11,3.09,2.38,5.56,5.37,6.41c3.12,0.89,6.19-0.07,8.11-2.53c0.02-0.03,0.04-0.07,0.07-0.1
		c1.09-1.12,1.59-2.23,1.33-4.01c-0.53-3.75,2.33-7.06,6.09-7.63c3.72-0.56,7.27,1.81,8.09,5.54c0.2,0.91,0.57,1.2,1.42,1.32
		c1.67,0.23,3.33,0.54,4.98,0.86c0.66,0.13,1.03,0.01,1.42-0.61c2.21-3.54,6.6-4.58,10.03-2.43c3.47,2.17,4.39,6.56,2.19,10.19
		c-0.2,0.33-0.21,0.85-0.15,1.26c0.07,0.49,0.33,0.96,0.5,1.44c1.27,3.78,4.11,5.76,7.97,5.55c3.46-0.19,6.29-2.62,6.95-6.4
		c0.35-2,0.43-4.17,0.07-6.16c-1.19-6.73-2.63-13.42-3.95-20.13c-0.78-3.93-2.94-6.48-7.01-7.22c-0.85-0.15-1.68-0.39-2.53-0.54
		c-8.91-1.56-17.83-3.11-26.74-4.65c-1.23-0.21-2.48-0.34-3.73-0.44c-2.64-0.21-4.92,0.58-6.54,2.71c-1.07,1.42-2.02,2.94-2.99,4.44
		l-3.09-1.55c1.38-2.12,2.77-4.24,4.4-6.15c2.24-2.61,5.45-3.35,8.79-2.92c4.58,0.6,9.13,1.42,13.69,2.15
		c0.5,0.08,0.99,0.17,1.56,0.27c0.38-2.17,0.74-4.27,1.12-6.44c-11.07-1.93-22.13-3.85-33.33-5.8c-0.15,0.86-0.28,1.7-0.44,2.53
		c-0.58,2.92-2.8,4.5-5.73,4.02c-2.82-0.46-5.64-0.94-8.45-1.47c-6.06-1.15-9.66-6.34-8.61-12.44c3.04-17.6,6.11-35.19,9.17-52.78
		c0.94-5.4,4.72-8.73,10.23-9.09c0.15-0.01,0.29-0.08,0.43-0.13c33.65,5.85,67.3,11.7,100.95,17.56c0.27,0.14,0.53,0.29,0.8,0.42
		c3.59,1.7,5.7,4.49,6.27,8.43C153.81,44.64,153.88,45.13,153.95,45.62z M141.03,99.3c2.53-14.54,5.06-29.08,7.59-43.63
		c0.07-0.37,0.13-0.75,0.24-1.39c-2.8,1.63-5.49,1.82-8.32,1.25c-2.38-0.48-4.78-0.85-7.18-1.26c-1.42-0.24-1.88,0.06-2.12,1.45
		c-2.7,15.5-5.4,31.01-8.09,46.52c-0.23,1.35,0.07,1.77,1.43,2.01c2.51,0.45,5.01,0.88,7.52,1.31
		C136.95,106.42,140.19,104.14,141.03,99.3z M143.81,52.31c3.54-0.25,6.34-3.11,6.49-6.56c0.16-3.66-2.31-6.64-6.1-7.3
		c-32.37-5.64-64.73-11.26-97.1-16.89c-4.2-0.73-7.81,1.66-8.5,5.59c-0.69,3.94,1.88,7.37,6.1,8.13c2.39,0.43,4.78,0.84,7.18,1.25
		c4.16,0.72,5.56,2.69,4.84,6.81c-2.25,12.92-4.49,25.84-6.74,38.76c-0.08,0.45-0.16,0.9-0.24,1.39
		c23.7,4.12,47.25,8.22,70.94,12.34c0.11-0.63,0.2-1.13,0.28-1.63c2.27-13.04,4.53-26.08,6.8-39.11c0.57-3.28,2.8-4.85,6.07-4.3
		c2.59,0.43,5.17,0.91,7.75,1.34C142.33,52.25,143.08,52.36,143.81,52.31z M87.5,137.31c2,0.31,3.95-1.11,4.27-3.11
		c0.32-2-1.1-3.96-3.1-4.27c-1.99-0.31-3.97,1.12-4.28,3.1C84.1,135.02,85.53,137,87.5,137.31z M70.71,130.62
		c0.36-2-0.99-3.97-2.99-4.33c-1.98-0.36-3.98,1.03-4.34,3.01c-0.36,1.97,1.03,3.98,3.01,4.34C68.37,134,70.34,132.62,70.71,130.62z
		 M45.25,88.71c2.7-15.5,5.4-31.01,8.09-46.52c0.24-1.4-0.08-1.83-1.5-2.09c-2.43-0.44-4.85-0.9-7.29-1.26
		c-2.81-0.42-5.24-1.53-7.25-3.91c-0.1,0.42-0.16,0.64-0.2,0.85c-2.6,14.93-5.2,29.85-7.78,44.79c-0.67,3.88,1.71,7.31,5.58,8.07
		c2.81,0.55,5.63,1.01,8.45,1.48C44.6,90.35,45.03,90.03,45.25,88.71z"/>
	<path d="M148.62,55.68c-2.53,14.54-5.06,29.08-7.59,43.63c-0.84,4.83-4.08,7.11-8.93,6.28c-2.51-0.43-5.02-0.86-7.52-1.31
		c-1.36-0.24-1.66-0.66-1.43-2.01c2.69-15.51,5.39-31.01,8.09-46.52c0.24-1.39,0.7-1.69,2.12-1.45c2.4,0.4,4.8,0.78,7.18,1.26
		c2.83,0.57,5.52,0.37,8.32-1.25C148.75,54.93,148.68,55.3,148.62,55.68z"/>
	<path class="st0" d="M150.3,45.74c-0.15,3.45-2.95,6.32-6.49,6.56c-0.73,0.05-1.48-0.06-2.22-0.18c-2.59-0.43-5.17-0.9-7.75-1.34
		c-3.27-0.55-5.5,1.03-6.07,4.3c-2.27,13.04-4.54,26.07-6.8,39.11c-0.09,0.5-0.17,1-0.28,1.63C97,91.72,73.44,87.62,49.74,83.5
		c0.09-0.49,0.16-0.94,0.24-1.39c2.25-12.92,4.49-25.84,6.74-38.76c0.72-4.12-0.68-6.09-4.84-6.81c-2.39-0.42-4.79-0.82-7.18-1.25
		c-4.22-0.76-6.79-4.19-6.1-8.13c0.69-3.94,4.3-6.32,8.5-5.59c32.37,5.62,64.73,11.25,97.1,16.89
		C147.99,39.1,150.46,42.08,150.3,45.74z M116.77,79.56c1.4-7.94,2.78-15.89,4.14-23.84c0.76-4.44-1.77-8.02-6.2-8.8
		c-5.55-0.98-11.11-1.93-16.66-2.9c-0.19-0.03-0.38-0.08-0.58-0.1c-1.08-0.1-1.92,0.5-2.06,1.48c-0.13,0.93,0.43,1.72,1.43,1.98
		c0.3,0.08,0.62,0.12,0.93,0.17c5.4,0.94,10.8,1.88,16.2,2.82c2.68,0.47,3.91,2.19,3.45,4.87c-1.36,7.87-2.73,15.74-4.11,23.61
		c-0.47,2.69-2.19,3.91-4.87,3.45c-14.2-2.47-28.4-4.94-42.59-7.41c-2.67-0.46-3.9-2.2-3.43-4.88c1.36-7.87,2.73-15.74,4.1-23.6
		c0.47-2.67,2.21-3.89,4.88-3.43c5.6,0.97,11.19,1.95,16.78,2.92c0.39,0.07,0.77,0.17,1.16,0.17c0.94-0.02,1.58-0.51,1.75-1.42
		c0.18-0.92-0.26-1.6-1.12-1.97c-0.32-0.13-0.69-0.16-1.03-0.22c-5.63-0.98-11.27-1.96-16.9-2.94c-4.67-0.81-8.19,1.66-9.01,6.33
		c-1.37,7.83-2.73,15.66-4.09,23.49c-0.82,4.72,1.67,8.22,6.43,9.05c7.06,1.23,14.12,2.46,21.18,3.69c7.1,1.23,14.2,2.47,21.3,3.7
		C112.39,86.54,115.98,84.05,116.77,79.56z M102.82,74.77c1.01-0.44,1.27-1.44,0.72-2.81c-0.67-1.67-1.35-3.33-2.05-5.06
		c0.43-0.24,0.75-0.4,1.04-0.59c2.24-1.39,3.43-4.37,2.88-7.18c-0.51-2.62-2.18-4.18-5.03-4.69c-1.39-0.25-2.78-0.49-4.17-0.72
		c-1.7-0.28-2.39,0.2-2.69,1.91c-0.71,4.04-1.41,8.09-2.11,12.14c-0.2,1.16-0.45,2.31-0.58,3.47c-0.16,1.45,1.21,2.51,2.41,1.82
		c0.49-0.28,0.92-0.96,1.05-1.54c0.39-1.66,0.62-3.35,0.9-4.94c1.8-0.17,2.76,0.46,3.23,2.11c0.45,1.57,1.2,3.05,1.83,4.57
		C100.86,74.7,101.76,75.23,102.82,74.77z M90.28,55.08c0.52-0.98,0.19-1.93-0.7-2.41c-0.82-0.44-1.73-0.17-2.33,0.71
		c-0.15,0.22-0.27,0.48-0.41,0.71c-2.08,3.66-4.17,7.32-6.38,11.21c-0.14-0.69-0.22-1.07-0.29-1.45c-0.69-3.97-1.36-7.94-2.07-11.9
		c-0.21-1.17-1.05-1.81-2.04-1.64c-1.03,0.18-1.63,1.02-1.43,2.18c0.92,5.43,1.84,10.87,2.86,16.29c0.13,0.69,0.67,1.45,1.24,1.87
		c1.15,0.86,2.57,0.29,3.48-1.28c1.79-3.12,3.55-6.26,5.32-9.38C88.46,58.36,89.41,56.74,90.28,55.08z"/>
	<path d="M109.45,133.34c0.35,2,0.28,4.16-0.07,6.16c-0.66,3.78-3.49,6.21-6.95,6.4c-3.86,0.21-6.7-1.77-7.97-5.55
		c-0.16-0.48-0.42-0.95-0.5-1.44c-0.06-0.41-0.05-0.93,0.15-1.26c2.21-3.63,1.28-8.02-2.19-10.19c-3.43-2.14-7.82-1.11-10.03,2.43
		c-0.39,0.63-0.76,0.74-1.42,0.61c-1.65-0.32-3.31-0.63-4.98-0.86c-0.85-0.12-1.22-0.41-1.42-1.32c-0.81-3.72-4.36-6.1-8.09-5.54
		c-3.76,0.57-6.62,3.88-6.09,7.63c0.25,1.78-0.25,2.88-1.33,4.01c-0.03,0.03-0.04,0.07-0.07,0.1c-1.93,2.46-4.99,3.41-8.11,2.53
		c-2.99-0.85-5.25-3.31-5.37-6.41c-0.07-1.83,0.14-3.82,0.84-5.49c0.61-1.46,1.37-2.87,2.15-4.26l0.02-0.03l7.93-13.35
		c0.97-1.5,1.91-3.02,2.99-4.44c1.61-2.13,3.9-2.93,6.54-2.71c1.25,0.1,2.5,0.23,3.73,0.44c8.91,1.53,17.83,3.09,26.74,4.65
		c0.85,0.15,1.68,0.38,2.53,0.54c4.07,0.73,6.23,3.29,7.01,7.22C106.83,119.92,108.27,126.61,109.45,133.34z M98.33,120.18
		c0.98,0.16,1.89-0.5,2.03-1.47c0.14-0.95-0.57-1.91-1.51-2.03c-0.96-0.12-1.83,0.58-1.96,1.57
		C96.77,119.22,97.38,120.03,98.33,120.18z M94.07,114.15c0.97,0.17,1.9-0.48,2.05-1.45c0.15-0.92-0.47-1.81-1.39-2
		c-0.96-0.2-1.92,0.43-2.1,1.39C92.45,113.04,93.1,113.98,94.07,114.15z M94.29,123.14c0.25-0.96-0.34-1.93-1.31-2.16
		c-0.96-0.22-1.94,0.41-2.13,1.37c-0.18,0.93,0.41,1.82,1.35,2.02C93.17,124.6,94.05,124.08,94.29,123.14z M90.05,116.97
		c0.17-0.98-0.47-1.91-1.43-2.06c-0.93-0.15-1.89,0.56-2.03,1.51c-0.14,0.93,0.48,1.8,1.41,1.97
		C89,118.58,89.87,117.97,90.05,116.97z M73.89,114.21c0.21-1.08-0.44-1.89-1.78-2.15c-0.91-0.18-1.83-0.32-2.85-0.5
		c0.18-1.01,0.34-1.89,0.48-2.77c0.23-1.38-0.25-2.25-1.32-2.45c-1.13-0.21-1.89,0.46-2.16,1.91c-0.16,0.87-0.31,1.75-0.48,2.72
		c-1.06-0.18-1.98-0.37-2.9-0.5c-1.3-0.19-2.13,0.31-2.33,1.37c-0.2,1.08,0.39,1.83,1.69,2.08c0.95,0.19,1.9,0.34,2.79,0.49
		c0.04,0.25,0.07,0.32,0.06,0.4c-0.13,0.81-0.28,1.62-0.4,2.43c-0.22,1.35,0.29,2.27,1.34,2.48c1.06,0.2,1.87-0.49,2.12-1.82
		c0.16-0.88,0.31-1.77,0.47-2.67c0.22-0.06,0.3-0.1,0.37-0.09c0.85,0.13,1.7,0.28,2.55,0.41C72.86,115.74,73.68,115.27,73.89,114.21
		z"/>
	<path d="M120.91,55.72c-1.36,7.95-2.75,15.9-4.14,23.84c-0.79,4.49-4.38,6.99-8.9,6.21c-7.1-1.23-14.2-2.47-21.3-3.7
		c-7.06-1.23-14.12-2.46-21.18-3.69c-4.75-0.83-7.24-4.33-6.43-9.05c1.35-7.83,2.71-15.66,4.09-23.49c0.82-4.67,4.34-7.14,9.01-6.33
		c5.63,0.98,11.27,1.96,16.9,2.94c0.35,0.06,0.71,0.09,1.03,0.22c0.86,0.36,1.29,1.04,1.12,1.97c-0.17,0.92-0.81,1.41-1.75,1.42
		c-0.39,0-0.77-0.1-1.16-0.17C82.6,44.91,77,43.93,71.41,42.96c-2.67-0.46-4.41,0.76-4.88,3.43c-1.37,7.87-2.74,15.74-4.1,23.6
		c-0.47,2.68,0.76,4.42,3.43,4.88c14.2,2.47,28.39,4.94,42.59,7.41c2.67,0.46,4.39-0.76,4.87-3.45c1.37-7.87,2.75-15.74,4.11-23.61
		c0.46-2.68-0.76-4.4-3.45-4.87c-5.4-0.95-10.8-1.88-16.2-2.82c-0.31-0.05-0.62-0.09-0.93-0.17c-1-0.26-1.57-1.04-1.43-1.98
		c0.14-0.97,0.98-1.58,2.06-1.48c0.19,0.02,0.38,0.06,0.58,0.1c5.55,0.97,11.11,1.92,16.66,2.9
		C119.14,47.7,121.67,51.28,120.91,55.72z"/>
	<path class="st0" d="M100.36,118.71c-0.14,0.97-1.05,1.63-2.03,1.47c-0.96-0.16-1.56-0.97-1.44-1.93c0.13-0.99,1-1.7,1.96-1.57
		C99.8,116.81,100.51,117.76,100.36,118.71z"/>
	<path d="M103.54,71.96c0.55,1.37,0.29,2.37-0.72,2.81c-1.06,0.46-1.96-0.07-2.56-1.52c-0.63-1.52-1.38-3-1.83-4.57
		c-0.47-1.64-1.44-2.28-3.23-2.11c-0.28,1.59-0.5,3.29-0.9,4.94c-0.14,0.58-0.56,1.26-1.05,1.54c-1.21,0.69-2.57-0.37-2.41-1.82
		c0.13-1.17,0.38-2.32,0.58-3.47c0.7-4.05,1.4-8.1,2.11-12.14c0.3-1.71,0.98-2.19,2.69-1.91c1.39,0.23,2.78,0.48,4.17,0.72
		c2.85,0.51,4.51,2.07,5.03,4.69c0.55,2.81-0.64,5.8-2.88,7.18c-0.3,0.18-0.61,0.34-1.04,0.59
		C102.19,68.63,102.87,70.3,103.54,71.96z M101.92,61.28c0.34-1.71-0.25-2.93-1.64-3.26c-1.09-0.25-2.22-0.4-3.41-0.6
		c-0.34,1.93-0.64,3.71-0.96,5.51c0.27,0.07,0.45,0.12,0.64,0.15c0.88,0.16,1.76,0.33,2.65,0.46
		C100.63,63.74,101.6,62.91,101.92,61.28z"/>
	<path class="st0" d="M96.12,112.7c-0.15,0.97-1.07,1.62-2.05,1.45c-0.97-0.17-1.62-1.1-1.44-2.06c0.18-0.95,1.15-1.58,2.1-1.39
		C95.65,110.89,96.27,111.78,96.12,112.7z"/>
	<path class="st0" d="M92.98,120.99c0.97,0.22,1.56,1.2,1.31,2.16c-0.24,0.93-1.12,1.45-2.09,1.24c-0.94-0.21-1.53-1.09-1.35-2.02
		C91.04,121.39,92.02,120.76,92.98,120.99z"/>
	<path d="M91.78,134.2c-0.32,2-2.27,3.42-4.27,3.11c-1.97-0.31-3.41-2.29-3.1-4.28c0.31-1.98,2.29-3.41,4.28-3.1
		C90.68,130.24,92.09,132.2,91.78,134.2z"/>
	<path class="st0" d="M100.28,58.02c1.39,0.33,1.98,1.55,1.64,3.26c-0.33,1.63-1.29,2.46-2.71,2.26c-0.89-0.13-1.77-0.3-2.65-0.46
		c-0.19-0.03-0.37-0.09-0.64-0.15c0.31-1.8,0.62-3.58,0.96-5.51C98.07,57.63,99.19,57.77,100.28,58.02z"/>
	<path class="st0" d="M88.63,114.9c0.95,0.15,1.6,1.09,1.43,2.06c-0.18,1.01-1.05,1.61-2.04,1.42c-0.93-0.18-1.55-1.05-1.41-1.97
		C86.74,115.47,87.69,114.75,88.63,114.9z"/>
	<path d="M89.58,52.67c0.89,0.48,1.22,1.43,0.7,2.41c-0.88,1.66-1.83,3.28-2.75,4.91c-1.77,3.13-3.53,6.27-5.32,9.38
		c-0.91,1.58-2.33,2.14-3.48,1.28c-0.57-0.42-1.11-1.18-1.24-1.87c-1.01-5.42-1.94-10.85-2.86-16.29c-0.2-1.16,0.4-2,1.43-2.18
		c0.99-0.17,1.83,0.46,2.04,1.64c0.71,3.97,1.38,7.93,2.07,11.9c0.07,0.38,0.15,0.76,0.29,1.45c2.21-3.89,4.29-7.55,6.38-11.21
		c0.14-0.24,0.25-0.49,0.41-0.71C87.85,52.5,88.76,52.23,89.58,52.67z"/>
	<path class="st0" d="M72.11,112.07c1.34,0.26,1.99,1.07,1.78,2.15c-0.21,1.06-1.03,1.52-2.35,1.32c-0.85-0.13-1.7-0.28-2.55-0.41
		c-0.07-0.01-0.15,0.04-0.37,0.09c-0.16,0.9-0.3,1.79-0.47,2.67c-0.25,1.33-1.06,2.02-2.12,1.82c-1.05-0.2-1.55-1.13-1.34-2.48
		c0.13-0.81,0.27-1.62,0.4-2.43c0.01-0.07-0.02-0.15-0.06-0.4c-0.89-0.16-1.85-0.31-2.79-0.49c-1.3-0.25-1.89-1-1.69-2.08
		c0.2-1.06,1.03-1.56,2.33-1.37c0.92,0.13,1.84,0.32,2.9,0.5c0.17-0.97,0.31-1.84,0.48-2.72c0.26-1.45,1.03-2.12,2.16-1.91
		c1.08,0.21,1.55,1.07,1.32,2.45c-0.15,0.88-0.31,1.76-0.48,2.77C70.28,111.74,71.2,111.89,72.11,112.07z"/>
	<path d="M67.72,126.28c1.99,0.36,3.35,2.33,2.99,4.33c-0.36,2-2.33,3.38-4.32,3.02c-1.98-0.36-3.37-2.37-3.01-4.34
		C63.74,127.31,65.74,125.92,67.72,126.28z"/>
	<path class="st0" d="M55.97,107.52l-7.93,13.35c0.69-1.22,1.41-2.43,2.08-3.65c0.61-1.11,0.46-2.13-0.43-2.67
		c-0.82-0.5-1.7-0.32-2.35,0.51l4.05-6.64c-0.15,0.64,0.22,1.28,0.85,1.69c0.78,0.51,1.59,0.39,2.23-0.3
		c0.29-0.31,0.48-0.71,0.72-1.07C55.45,108.33,55.71,107.93,55.97,107.52z"/>
	<path class="st0" d="M52.88,105.97l3.09,1.55c-0.26,0.4-0.52,0.8-0.78,1.21c-0.23,0.36-0.43,0.76-0.72,1.07
		c-0.64,0.69-1.45,0.81-2.23,0.3c-0.63-0.41-1-1.05-0.85-1.69L52.88,105.97L52.88,105.97z"/>
	<path class="st0" d="M52.88,105.97l-1.49,2.44c0.03-0.15,0.1-0.3,0.2-0.45C52.02,107.3,52.45,106.64,52.88,105.97z"/>
	<path class="st0" d="M49.69,114.55c0.88,0.54,1.04,1.56,0.43,2.67c-0.67,1.22-1.39,2.43-2.08,3.65l-0.02,0.03l-3.33-1.5l2.65-4.35
		C47.99,114.23,48.87,114.05,49.69,114.55z"/>
	<path class="st0" d="M47.34,115.06l-2.65,4.35c0.79-1.36,1.61-2.69,2.43-4.03C47.19,115.26,47.26,115.15,47.34,115.06z"/>
	<path d="M53.34,42.2c-2.69,15.51-5.39,31.01-8.09,46.52c-0.23,1.32-0.66,1.63-1.91,1.42c-2.82-0.47-5.64-0.93-8.45-1.48
		c-3.87-0.77-6.24-4.2-5.58-8.07C31.9,65.65,34.5,50.73,37.1,35.8c0.04-0.22,0.1-0.43,0.2-0.85c2.02,2.38,4.44,3.49,7.25,3.91
		c2.44,0.36,4.86,0.83,7.29,1.26C53.27,40.37,53.59,40.8,53.34,42.2z"/>
</g>
</svg>
